<?xml version="1.0" encoding="UTF-8" standalone="no"?>
<!-- Created with Inkscape (http://www.inkscape.org/) -->

<svg
   xmlns:dc="http://purl.org/dc/elements/1.1/"
   xmlns:cc="http://creativecommons.org/ns#"
   xmlns:rdf="http://www.w3.org/1999/02/22-rdf-syntax-ns#"
   xmlns:svg="http://www.w3.org/2000/svg"
   xmlns="http://www.w3.org/2000/svg"
   xmlns:sodipodi="http://sodipodi.sourceforge.net/DTD/sodipodi-0.dtd"
   xmlns:inkscape="http://www.inkscape.org/namespaces/inkscape"
   id="svg2985"
   version="1.1"
   inkscape:version="0.48.4 r9939"
   width="846"
   height="837"
   sodipodi:docname="20110305_12_B_q02.png">
  <metadata
     id="metadata2991">
    <rdf:RDF>
      <cc:Work
         rdf:about="">
        <dc:format>image/svg+xml</dc:format>
        <dc:type
           rdf:resource="http://purl.org/dc/dcmitype/StillImage" />
        <dc:title></dc:title>
      </cc:Work>
    </rdf:RDF>
  </metadata>
  <defs
     id="defs2989" />
  <sodipodi:namedview
     pagecolor="#ffffff"
     bordercolor="#666666"
     borderopacity="1"
     objecttolerance="10"
     gridtolerance="10"
     guidetolerance="10"
     inkscape:pageopacity="0"
     inkscape:pageshadow="2"
     inkscape:window-width="640"
     inkscape:window-height="480"
     id="namedview2987"
     showgrid="false"
     inkscape:zoom="0.28195938"
     inkscape:cx="423"
     inkscape:cy="418.5"
     inkscape:window-x="0"
     inkscape:window-y="0"
     inkscape:window-maximized="0"
     inkscape:current-layer="svg2985" />
  <path
     style="fill:#000000"
     d="m 428.5,829.82015 c -1.1,-0.0771 -3.575,-0.29405 -5.5,-0.48205 -1.925,-0.188 -6.10268,-0.81662 -9.28374,-1.39692 l -5.78373,-1.0551 -6.36858,-2.85739 -6.36857,-2.85738 -4.17011,-3.76744 -4.1701,-3.76744 -1.79893,-3.56822 -1.79892,-3.56821 -1.06098,-6.5 -1.06097,-6.5 0.36499,-10 c 0.20075,-5.5 0.57444,-11.125 0.83042,-12.5 0.25599,-1.375 0.79712,-4.3 1.20253,-6.5 0.4054,-2.2 1.59764,-5.71149 2.64942,-7.80332 l 1.91232,-3.80331 5.95345,-5.86173 5.95344,-5.86174 4.74903,-2.65658 c 2.61197,-1.46113 7.32233,-3.52436 10.46748,-4.58496 L 420.93691,732 l 5.59365,0 5.59365,0 5.18789,1.67408 c 2.85335,0.92074 6.7629,2.621 8.6879,3.77835 1.925,1.15734 5.22419,2.99151 7.33154,4.07592 2.10735,1.08441 6.08159,3.88415 8.83165,6.22165 2.75007,2.3375 4.70773,4.25 4.35037,4.25 -0.35736,0 0.20099,1.2375 1.24077,2.75 1.03979,1.5125 2.61599,4.33096 3.50266,6.26324 l 1.61214,3.51324 0.56224,4.48676 c 0.30924,2.46772 0.81907,5.83676 1.13297,7.48676 0.3139,1.65 0.69011,6.825 0.83601,11.5 l 0.26528,8.5 -1.38653,5.5 c -0.7626,3.025 -2.00767,6.85 -2.76684,8.5 -0.75916,1.65 -2.30272,3.98588 -3.43012,5.19084 -1.1274,1.20496 -3.96959,3.4736 -6.31598,5.04141 l -4.26616,2.85057 -6.5,2.20238 -6.5,2.20239 -7,0.9864 c -3.85,0.54251 -7.9,0.92329 -9,0.84616 z m -94.49465,-8.17512 -10.50535,0.2744 -6.15372,-1.41015 c -3.38455,-0.77558 -9.74954,-2.79684 -14.14444,-4.49169 l -7.99072,-3.08154 -6.35556,-4.08149 -6.35556,-4.08149 -5.79265,-6.12403 -5.79264,-6.12403 -2.62964,-5.37479 -2.62964,-5.37479 0.004,-8.63772 c 0.002,-4.75074 0.27144,-9.76271 0.59797,-11.13771 0.32654,-1.375 0.68457,-2.5 0.79563,-2.5 0.11107,0 0.34611,-0.9 0.52233,-2 0.17621,-1.1 1.07213,-4.1375 1.99091,-6.75 l 1.67053,-4.75 0.78363,0 c 0.431,0 1.27116,-1.2375 1.86702,-2.75 0.59586,-1.5125 1.65238,-3.64366 2.34782,-4.73591 0.69545,-1.09226 2.16445,-2.80703 3.26445,-3.81061 1.1,-1.00358 2.90411,-2.58492 4.00912,-3.51408 1.10502,-0.92917 4.28485,-2.90999 7.0663,-4.40183 l 5.05718,-2.71243 7.16683,-1.11197 7.16682,-1.11197 5.65239,1.17343 5.65238,1.17343 7.11449,3.67249 c 3.91297,2.01987 10.93949,6.18636 15.61449,9.25885 l 8.5,5.58636 3.8872,3.89212 3.8872,3.89212 2.42275,5.22083 c 1.33251,2.87145 2.49154,6.13395 2.57561,7.25 l 0.15285,2.02917 0.84621,0 0.84621,0 -0.68713,1.1118 -0.68713,1.11181 1.37811,0.87288 1.37812,0.87288 -1.06707,0.0153 -1.06707,0.0153 0.15389,5.59013 0.15389,5.59013 1.41318,0.89456 1.41318,0.89455 -1.30902,0.0153 -1.30901,0.0153 0.61803,1 0.61803,1 -0.80901,-7.5e-4 -0.80902,-7.4e-4 -0.0688,6.75074 -0.0688,6.75075 -2.2214,6.10127 -2.22139,6.10127 -3.20981,3.30534 -3.20981,3.30534 -5.49465,2.5287 -5.49466,2.52871 -10.50534,0.2744 z M 526,818.5505 l -10.5,0.40417 -4.5,-1.31562 c -2.475,-0.7236 -5.85,-2.02322 -7.5,-2.88806 -1.65,-0.86484 -4.20204,-2.85011 -5.6712,-4.41171 L 495.15759,807.5 493.14034,801 c -1.10948,-3.575 -2.2746,-8.525 -2.58914,-11 -0.31454,-2.475 -0.59932,-8.82518 -0.63284,-14.11152 -0.0335,-5.28634 0.25787,-11.36134 0.64752,-13.5 0.38966,-2.13866 1.64203,-5.89827 2.78305,-8.35468 l 2.07457,-4.4662 5.03825,-5.11839 5.03825,-5.11839 7,-4.12578 c 3.85,-2.26918 8.96908,-4.81861 11.37573,-5.66541 L 528.25145,728 l 5.40582,0 5.40582,0 6.21846,2.07658 6.21845,2.07657 8.15813,4.42572 8.15813,4.42571 4.34187,3.62753 c 2.38803,1.99514 4.11687,3.75806 3.84187,3.91759 -0.275,0.15953 0.52583,1.46987 1.77963,2.91186 l 2.27963,2.62181 2.04961,5.47808 2.04961,5.47807 0.0734,8.23024 0.0734,8.23024 -0.75118,3.5 c -0.41314,1.925 -1.06807,3.725 -1.45539,4 -0.38732,0.275 -1.75256,2.22456 -3.03388,4.33235 -1.28132,2.10779 -3.50756,4.95556 -4.94721,6.32838 -1.43965,1.37281 -5.09255,4.17242 -8.11755,6.22134 -3.025,2.04893 -8.20886,4.91738 -11.51969,6.37435 -3.31084,1.45696 -8.71084,3.37822 -12,4.26947 L 536.5,818.14633 526,818.5505 z m -344.5,-78.66436 -5,-0.065 -4.5,-1.24792 c -2.475,-0.68635 -6.68984,-2.21896 -9.36631,-3.4058 -2.67647,-1.18684 -7.85147,-4.28523 -11.5,-6.88531 -3.64853,-2.60009 -8.83145,-6.95637 -11.51761,-9.68062 l -4.88392,-4.95319 -4.23401,-6.57417 -4.234,-6.57416 -1.58081,-6.5 -1.58081,-6.5 0.39495,-3.73015 0.39495,-3.73015 2.51553,-4.26985 c 1.38354,-2.34842 3.54525,-5.2797 4.80379,-6.51397 1.25854,-1.23427 3.63825,-3.30354 5.28825,-4.59838 1.65,-1.29484 5.925,-4.38472 9.5,-6.86641 3.575,-2.48169 8.975,-5.80611 12,-7.3876 l 5.5,-2.87543 8.5,-0.0123 8.5,-0.0123 5,1.91408 c 2.75,1.05274 10.4,4.47868 17,7.61318 l 12,5.6991 3,2.63392 c 1.65,1.44865 3.225,2.63533 3.5,2.63706 0.275,0.002 2.00991,2.21855 3.85535,4.92626 l 3.35535,4.9231 -0.62166,1.00586 -0.62166,1.00587 1.08448,0.67025 1.08449,0.67025 -0.5245,1.36683 -0.5245,1.36682 0.77518,0.47909 0.77518,0.47909 -0.1686,7.30293 c -0.0927,4.01662 -0.50561,8.80472 -0.91749,10.64024 l -0.74888,3.33729 -5.00052,8.16271 c -2.75029,4.48948 -5.6309,8.52256 -6.40137,8.96239 L 215,724.09938 l 0,1.2819 0,1.28189 -4.79268,3.10555 c -2.63598,1.70806 -7.0425,4.23557 -9.79228,5.61671 -2.74977,1.38113 -7.00556,2.97342 -9.45731,3.53841 l -4.45773,1.02727 -5,-0.065 z m 492.25684,-3.35628 -6.25684,0.45589 -5,-1.58312 -5,-1.58312 -5.03468,-3.86525 c -2.76908,-2.12589 -6.36036,-5.52796 -7.98063,-7.56017 -1.62027,-2.0322 -3.54246,-5.31473 -4.27154,-7.2945 -0.72908,-1.97978 -1.75536,-4.94959 -2.28063,-6.59959 l -0.95503,-3 -0.007,-8 c -0.004,-4.4 0.23454,-10.925 0.52992,-14.5 l 0.53707,-6.5 1.57771,-5.5 c 0.86775,-3.025 2.32185,-6.82578 3.23133,-8.44618 0.90949,-1.6204 2.32861,-3.79046 3.15361,-4.82236 0.825,-1.03189 3.525,-3.35653 6,-5.16586 2.475,-1.80934 6.65616,-4.47828 9.29147,-5.93099 2.63531,-1.45272 7.45862,-3.53979 10.71846,-4.63795 L 677.93691,640 l 6.11099,0 6.11099,0 6.67055,2.6371 6.67056,2.63709 9.73972,6.42406 c 5.35685,3.53323 10.30685,7.01168 11,7.72988 0.69316,0.71821 2.16028,2.37819 3.26028,3.68885 1.1,1.31066 2.5625,3.64169 3.25,5.18007 0.6875,1.53838 1.25,3.67588 1.25,4.75 l 0,1.95295 1.25,0.0153 1.25,0.0153 -1,0.73468 -1,0.73469 -0.13556,2.5 c -0.0746,1.375 -0.37067,3.625 -0.65802,5 -0.28735,1.375 -0.95993,3.625 -1.49463,5 -0.53471,1.375 -0.96151,2.725 -0.94846,3 0.0131,0.275 -1.12184,2.75 -2.52199,5.5 -1.40015,2.75 -3.71419,6.35 -5.14231,8 -1.42812,1.65 -2.59714,3.32823 -2.59781,3.7294 -6.7e-4,0.40118 -2.07364,2.65118 -4.6066,5 -2.53296,2.34883 -6.0806,5.6206 -7.88365,7.2706 -1.80305,1.65 -5.79268,4.50958 -8.86583,6.35461 -3.07316,1.84504 -8.29744,4.44918 -11.60951,5.78699 l -6.02195,2.43237 -6.25684,0.45589 z m -299.66339,-4.60293 -4.59345,-0.0731 -5,-1.79501 c -2.75,-0.98726 -7.925,-3.50473 -11.5,-5.59438 -3.575,-2.08966 -9.875,-6.05208 -14,-8.80538 l -7.5,-5.006 -3,-3.4258 c -1.65,-1.88418 -3.98649,-5.14691 -5.19221,-7.25049 l -2.1922,-3.8247 -1.06764,-5.88767 -1.06763,-5.88766 0.97359,-5.13376 c 0.53548,-2.82357 1.5997,-6.62085 2.36493,-8.43839 l 1.39132,-3.30463 4.89492,-5.0499 c 2.69221,-2.77745 6.69492,-6.17209 8.89492,-7.54366 2.2,-1.37156 7.15,-4.11081 11,-6.08721 3.85,-1.97641 9.81289,-4.6047 13.25086,-5.84066 l 6.25087,-2.24718 6.97745,0.49923 6.97746,0.49924 8.43309,4.04648 8.43309,4.04648 6.06554,6.06554 6.06554,6.06554 1.57648,3.77305 c 0.86706,2.07518 1.55158,3.77305 1.52116,3.77305 -0.0304,0 0.4404,1.575 1.04629,3.5 l 1.10163,3.5 0.31127,12.25 0.31127,12.25 -1.03344,0 -1.03345,0 1.33948,1.75 c 0.73671,0.9625 0.96324,1.43393 0.50339,1.04762 l -0.83608,-0.70238 -1.3988,1.39881 c -0.76935,0.76934 -1.29518,1.76041 -1.16851,2.20238 0.12667,0.44196 -0.31894,1.7933 -0.99025,3.00298 -0.6713,1.20967 -3.15541,4.16205 -5.52023,6.56083 l -4.29968,4.36143 -6.12183,3.71881 -6.12182,3.71881 -5.72694,1.97035 -5.72694,1.97036 -4.59345,-0.0731 z m 103.10733,0.007 C 476.81535,731.89799 474.025,731.2168 471,730.42042 l -5.5,-1.44795 -7,-3.62157 c -3.85,-1.99187 -8.8,-4.85837 -11,-6.37002 l -4,-2.74844 -3.05469,-3.86622 C 438.76523,710.2398 436.75077,706.925 435.96874,705 c -0.78204,-1.925 -1.5796,-4.175 -1.77237,-5 -0.19276,-0.825 -0.65331,-4.65 -1.02343,-8.5 l -0.67294,-7 0.73497,-6.44671 c 0.40423,-3.54568 1.4529,-8.60818 2.33036,-11.25 l 1.5954,-4.80329 1.0863,0 1.0863,0 -0.6581,-0.6581 -0.6581,-0.6581 5.60419,-5.3419 c 3.0823,-2.93804 5.9713,-5.3419 6.42,-5.3419 0.4487,0 1.4175,-0.60168 2.15289,-1.33707 0.73539,-0.73539 4.25503,-2.72064 7.82143,-4.41168 3.5664,-1.69104 8.50936,-3.61442 10.98436,-4.27418 l 4.5,-1.19957 5.81229,0.60243 5.81228,0.60243 7.18772,3.14121 7.18771,3.14121 3.97068,3.11761 c 2.18387,1.71469 5.55887,4.85956 7.5,6.98861 1.94112,2.12905 3.90432,4.94155 4.36265,6.25 0.45834,1.30845 1.14941,2.379 1.53572,2.379 0.38631,0 0.77492,0.7875 0.86359,1.75 0.0887,0.9625 0.466,3.1 0.83853,4.75 0.37252,1.65 0.76874,7.45412 0.88047,12.89804 l 0.20315,9.89804 -1.02375,4.60196 c -0.56305,2.53108 -1.2736,4.82696 -1.57898,5.10196 -0.30539,0.275 -1.13883,1.63615 -1.8521,3.02478 -0.71327,1.38863 -2.89938,4.22337 -4.85802,6.29943 -1.95865,2.07606 -5.89299,5.49727 -8.74298,7.60269 -2.85,2.10541 -7.41317,4.9522 -10.14039,6.32618 l -4.95857,2.49816 -5.29922,1.12438 c -2.91457,0.61841 -5.61457,1.09476 -6,1.05857 z m 111.94706,-5.25726 -7.64784,0.33436 -5.55497,-1.83709 c -3.05524,-1.01039 -8.00524,-3.13466 -11,-4.72059 -2.99477,-1.58593 -7.47003,-4.20112 -9.94503,-5.81154 -2.475,-1.61041 -5.45597,-3.90808 -6.62439,-5.10593 -1.16841,-1.19786 -3.24653,-3.95551 -4.61804,-6.12813 l -2.49366,-3.95021 -1.13196,-5.27812 L 539,688.9013 l 0,-9.26928 0,-9.26928 1.47467,-4.96575 1.47467,-4.96575 1.81032,-1.96575 c 0.99568,-1.08116 2.49368,-2.95218 3.32891,-4.15782 0.83522,-1.20564 3.77393,-3.74348 6.53046,-5.63964 2.75653,-1.89616 7.23242,-4.56961 9.94642,-5.94101 l 4.93455,-2.49344 5.85221,-1.20904 5.85221,-1.20903 3.56546,0.66888 c 1.961,0.36789 5.93423,1.55516 8.82939,2.63838 l 5.26394,1.96949 7.48875,4.93751 7.48874,4.93751 1.90208,2.76623 c 1.04614,1.52143 2.65698,4.40924 3.57965,6.41736 0.92266,2.00812 1.67757,4.56906 1.67757,5.69098 l 0,2.03986 0.8716,0.53867 0.8716,0.53868 -0.3361,5.23326 -0.3361,5.23327 1.2145,0.77176 1.2145,0.77176 -1.2388,0.0153 -1.2388,0.0153 0.12726,2.25 c 0.07,1.2375 -0.21869,4.5 -0.64151,7.25 -0.42282,2.75 -0.87888,6.2375 -1.01346,7.75 -0.13458,1.5125 -0.35423,3.0875 -0.48811,3.5 -0.13388,0.4125 -0.1733,1.13801 -0.0876,1.61224 0.0857,0.47423 -1.5485,3.49546 -3.63158,6.71384 l -3.78741,5.8516 -7.35216,4.20745 -7.35217,4.20744 -7.64783,0.33436 z M 272,709.6375 l -5.5,0.4447 -3.29952,-1.68998 -3.29951,-1.68999 -3.46497,-4.04803 -3.46496,-4.04803 -1.10901,-4.05308 -1.10901,-4.05309 0.0299,-5.59947 0.0299,-5.59947 2.08048,-4.56694 2.08048,-4.56694 3.56935,-2.94216 3.56935,-2.94216 3.80975,-1.14143 3.80976,-1.14143 4.38398,0.0408 4.38398,0.0408 6,2.91846 c 3.3,1.60515 5.6669,2.93681 5.25979,2.95923 l -0.74022,0.0408 1.74022,2.11159 c 0.95711,1.16138 2.28128,2.68281 2.94259,3.38095 l 1.20238,1.26936 -0.5334,0.53341 -0.5334,0.5334 1.08862,2.0341 1.08862,2.0341 0.35445,4.57779 0.35445,4.57778 -0.96881,0.59876 -0.96882,0.59876 1.35677,0.85969 1.35676,0.85968 -1.31739,0.0153 -1.31739,0.0153 0.59719,1.88158 0.59719,1.88157 -1.59318,0.61136 -1.59318,0.61136 0.52447,0.84862 0.52447,0.84861 -3.21109,3.09648 -3.21109,3.09649 -5,2.15836 -5,2.15837 -5.5,0.4447 z M 107.63094,658.91405 c -2.82202,-0.0473 -6.25885,-0.42905 -7.637414,-0.84839 -1.378561,-0.41934 -4.078561,-1.5712 -6,-2.55968 -1.921439,-0.98849 -6.000295,-3.7209 -9.064123,-6.07202 l -5.570597,-4.27476 -2.893155,-3.8296 c -1.591235,-2.10628 -3.359466,-4.37648 -3.929403,-5.0449 -0.569936,-0.66841 -1.545057,-1.82944 -2.166934,-2.58006 -0.621877,-0.75063 -2.845865,-4.92874 -4.942196,-9.28471 L 61.615609,616.5 l 0.128563,-1.73031 0.128564,-1.73031 -0.878082,-0.54268 -0.878082,-0.54269 -0.761864,-7.227 c -0.419026,-3.97486 -0.704903,-8.41502 -0.635283,-9.86702 0.06962,-1.45201 0.868897,-4.82701 1.77617,-7.5 L 62.145184,582.5 64.797366,579 c 1.4587,-1.925 3.563534,-4.28748 4.677408,-5.24995 C 70.588648,572.78758 76.45,569.47912 82.5,566.3979 c 6.05,-3.08121 13.475,-6.56873 16.5,-7.75005 l 5.5,-2.14785 9.55186,0 9.55187,0 7.94813,3.91837 7.94814,3.91837 5.06418,4.08163 5.06419,4.08163 2.76904,3.88024 2.76904,3.88025 1.9182,6.0045 1.91821,6.0045 0.61877,8.11526 c 0.34033,4.46339 0.65632,8.34025 0.7022,8.61525 0.0459,0.275 -0.5189,3.65 -1.25506,7.5 -0.73617,3.85 -1.96436,8.2375 -2.72931,9.75 l -1.39082,2.75 0.67869,0 c 0.37328,0 -0.35902,0.9 -1.62733,2 -1.26831,1.1 -1.93832,2 -1.4889,2 0.44942,0 -1.28173,1.6352 -3.84699,3.63377 C 146.09885,638.63235 144,640.66849 144,641.15853 l 0,0.89097 -2.71612,1.03267 -2.71611,1.03266 1.29677,0.80145 1.29678,0.80146 -2.96012,0.59202 -2.96013,0.59203 -1.37053,1.33202 c -0.7538,0.73261 -2.75327,2.30355 -4.44328,3.49097 -1.69,1.18743 -6.13108,3.31012 -9.86905,4.71709 L 112.76188,659 l -5.13094,-0.086 z m 123.95228,-9.97986 c -2.24577,-0.0362 -6.34788,-0.67694 -9.1158,-1.42386 l -5.03257,-1.35805 -12.87626,-6.08584 -12.87627,-6.08583 -4.40695,-3.61117 -4.40696,-3.61117 -2.52526,-3.81592 -2.52526,-3.81592 -1.00017,-3.81322 -1.00016,-3.81321 -0.36248,-11.09589 -0.36248,-11.09589 1.17805,-3.90411 c 0.64793,-2.14726 2.08959,-5.52732 3.2037,-7.51125 l 2.02565,-3.60714 5.5,-4.71507 5.5,-4.71508 10.02712,-4.90009 10.02713,-4.90009 6.97287,-0.60623 6.97288,-0.60623 5.91927,2.08291 5.91928,2.08292 5.08072,3.21035 c 2.7944,1.7657 6.56303,4.35123 8.37472,5.74563 l 3.29399,2.53526 3.47087,5.19185 3.47086,5.19185 1.06323,5.30815 c 0.58477,2.91948 1.29463,6.88315 1.57746,8.80815 0.28283,1.925 0.5852,9.64407 0.67192,17.15348 l 0.15768,13.65349 -0.75,-0.4625 -0.75,-0.4625 0,1.40537 c 0,0.77296 -0.77153,2.93702 -1.71451,4.80902 -0.94299,1.872 -1.81804,4.0675 -1.94458,4.87888 l -0.23006,1.47524 1.19458,0.75945 1.19457,0.75944 -1.74769,0.0153 -1.74768,0.0153 -5.25232,3.72087 c -2.88877,2.04648 -5.47731,3.99609 -5.75231,4.33246 -0.275,0.33637 -3.16255,1.13698 -6.41678,1.77913 -3.25423,0.64215 -7.75423,1.13792 -10,1.10173 z m 516.55335,-2.06156 -4.63657,0.71625 -4.10249,-0.71711 c -2.25637,-0.39441 -5.68513,-1.53941 -7.61948,-2.54444 -1.93436,-1.00503 -5.48824,-2.90028 -7.89752,-4.21166 -2.40928,-1.31139 -4.60551,-2.69109 -4.88051,-3.066 -0.275,-0.37492 -2.525,-2.06071 -5,-3.7462 -2.475,-1.68549 -6.09779,-4.58079 -8.05064,-6.434 -1.95285,-1.85321 -4.41913,-4.71947 -5.48062,-6.36947 -1.0615,-1.65 -2.51404,-4.575 -3.22789,-6.5 l -1.29789,-3.5 -0.58855,-10.5 -0.58854,-10.5 1.09139,-5.79476 c 0.60026,-3.18712 1.86975,-7.46212 2.82108,-9.5 l 1.7297,-3.70524 6.04598,-6.07979 6.04598,-6.07978 7.94419,-3.92022 7.94418,-3.92021 8.7182,-0.34623 8.71821,-0.34623 6.33761,2.22869 c 3.48568,1.22577 10.34279,4.30657 15.23801,6.84622 l 8.90041,4.61755 4.24241,4 4.24242,4 2.26986,5 2.26986,5 -0.0703,8 c -0.0387,4.4 -0.37077,9.35 -0.738,11 -0.36723,1.65 -1.144,4.125 -1.72616,5.5 -0.58216,1.375 -1.41998,3.4 -1.86183,4.5 -0.44184,1.1 -1.08696,3.0125 -1.43359,4.25 l -0.63024,2.25 -0.99162,0 -0.99163,0 0.61803,1 0.61803,1 -0.99163,0 -0.99162,0 -0.70454,2.25 c -0.38749,1.2375 -2.88235,4.86433 -5.54414,8.05963 -2.66179,3.19529 -6.7313,7.39009 -9.04337,9.32176 -2.31207,1.93168 -5.97357,4.41504 -8.13668,5.51857 l -3.93292,2.00643 -4.63656,0.71624 z m -438.28091,-0.96282 c -2.39562,-0.0496 -5.8679,-0.52536 -7.7162,-1.05723 -1.84829,-0.53188 -5.081,-2.05313 -7.18379,-3.38057 -2.1028,-1.32743 -4.79382,-3.43918 -5.98006,-4.69276 -1.18623,-1.25359 -2.98758,-4.07925 -4.00298,-6.27925 -1.0154,-2.2 -2.46532,-6.25 -3.22203,-9 l -1.37584,-5 0.17041,-13.5 c 0.0937,-7.425 0.48278,-15.46549 0.86457,-17.86776 l 0.69417,-4.36777 2.45257,-4.69045 2.45257,-4.69046 3.24547,-2.97138 c 1.78502,-1.63426 5.04548,-4.32299 7.24548,-5.97496 2.2,-1.65196 7.375,-4.54084 11.5,-6.41972 l 7.5,-3.41615 8.5,-0.41072 8.5,-0.41071 6.19623,2.51814 6.19623,2.51813 3.80377,2.7832 c 2.09207,1.53077 4.77812,3.76134 5.96899,4.95683 1.19087,1.19549 3.59632,4.70941 5.34546,7.8087 1.74913,3.09929 2.9338,5.63508 2.63261,5.63508 -0.3012,0 0.0708,2.05473 0.82656,4.56607 l 1.37418,4.56606 -0.018,9.18394 -0.018,9.18393 -0.59794,0.96833 c -0.32887,0.53258 -0.65505,2.18934 -0.72485,3.68169 l -0.12691,2.71336 -1.17047,1.41032 -1.17046,1.41032 0.5653,0.5653 0.56531,0.5653 -2.32398,2.67281 c -1.27819,1.47005 -2.09898,2.86736 -1.82398,3.10515 0.275,0.23778 -0.69055,1.21423 -2.14567,2.16988 -1.45511,0.95564 -4.78513,3.26811 -7.40003,5.13881 -2.6149,1.87069 -8.86617,5.54608 -13.89171,8.16752 l -9.13733,4.76626 -6.10698,1.58247 -6.10697,1.58248 -4.35565,-0.0902 z m 114.32843,-5.93355 -6.68409,-0.0237 -5.5,-2.28251 c -3.025,-1.25538 -7.42894,-3.51072 -9.78653,-5.01187 -2.35759,-1.50115 -6.09499,-4.3632 -8.30534,-6.36011 l -4.01881,-3.63075 -2.53148,-4.31965 -2.53148,-4.31965 -1.3324,-5.05089 -1.3324,-5.05089 0.17389,-12.21311 0.17389,-12.2131 2.7402,-5.5 2.74019,-5.5 3.29853,-3.75 3.29854,-3.75 1.2066,0 1.2066,0 0,-0.86298 0,-0.86299 7.25,-3.67 7.25,-3.67001 5.5,-1.45514 5.5,-1.45514 4,0 4,0 5.36858,1.4289 c 2.95271,0.78589 7.89499,2.69305 10.98284,4.23813 l 5.61426,2.80923 5.19132,5 5.19132,5 2.72927,6 2.72927,6 0.30692,12.72278 0.30692,12.72277 -1.47377,3.52723 C 466.63636,610.41275 466.20984,612 466.49912,612 c 0.28929,0 -0.66028,1.9125 -2.11013,4.25 -1.44986,2.3375 -3.593,5.29927 -4.76255,6.58172 -1.16954,1.28244 -5.27644,4.45586 -9.12644,7.05205 l -7,4.72034 -6.31591,2.69794 -6.31592,2.69795 -6.68408,-0.0237 z m 208.63959,-2.04207 c -1.82802,-0.0362 -5.79868,-0.7281 -8.82368,-1.53757 l -5.5,-1.47176 -7.41766,-4.21243 -7.41765,-4.21243 -4.11166,-4 c -2.2614,-2.2 -4.83777,-5.14812 -5.72525,-6.55138 -0.88748,-1.40326 -2.36389,-4.7613 -3.28091,-7.46231 l -1.6673,-4.91093 0.0353,-9.94705 0.0353,-9.94704 1.10092,-3.59065 c 0.6055,-1.97485 1.36537,-4.26564 1.68859,-5.09064 0.32322,-0.825 0.62654,-1.76276 0.67404,-2.0839 0.0475,-0.32115 1.40278,-2.66653 3.01174,-5.21196 l 2.92536,-4.62805 5.57464,-4.17346 c 3.06604,-2.29539 8.27658,-5.4532 11.57896,-7.01733 l 6.00434,-2.84389 5.17035,-0.98054 5.17035,-0.98053 5.64608,0.91892 5.64609,0.91892 5.3476,2.44822 c 2.94118,1.34651 8.19683,4.34727 11.67923,6.66835 3.4824,2.32108 7.68163,5.67329 9.33163,7.44937 l 3,3.22922 2.86923,5.63691 2.86923,5.63691 -0.0329,11.25642 c -0.0181,6.19103 -0.29077,12.38142 -0.60597,13.75642 -0.31519,1.375 -1.11395,3.85 -1.77501,5.5 -0.66106,1.65 -2.35453,4.5649 -3.76326,6.47756 -1.40873,1.91265 -3.68633,4.5094 -5.06133,5.77055 -1.375,1.26115 -5.425,4.05775 -9,6.21468 l -6.5,3.92168 -7.67632,2.55776 -7.67631,2.55777 -3.32369,-0.0658 z m -103.16903,-1.31703 -7.15465,0.30455 -4.2301,-1.39161 c -2.32656,-0.76538 -6.97001,-2.85196 -10.31879,-4.63684 l -6.08868,-3.24523 -5.77284,-5.57402 -5.77283,-5.57401 -2.33433,-6 -2.33433,-6 -0.0432,-13 -0.0432,-13 2.72859,-6.5 2.72859,-6.5 3.24052,-3.27195 c 1.78229,-1.79956 4.26937,-4.11652 5.52685,-5.14879 1.25748,-1.03227 5.60961,-3.51892 9.67141,-5.52589 l 7.38509,-3.64905 5.0721,-0.80179 5.07211,-0.80179 5.36229,0.84089 5.3623,0.84089 5.62346,2.48697 c 3.09291,1.36783 7.9953,4.12218 10.8942,6.12079 2.89889,1.9986 6.74141,5.19238 8.53892,7.09729 1.79752,1.90491 4.24612,5.34199 5.44135,7.63795 1.19523,2.29597 2.33005,5.07448 2.52182,6.17448 0.19177,1.1 0.69622,4.51464 1.121,7.5881 l 0.77233,5.5881 -1.19692,8.4119 c -0.65831,4.62654 -1.30511,8.5244 -1.43735,8.6619 -0.13224,0.1375 -0.31376,0.5875 -0.40338,1 -0.0896,0.4125 -1.02033,2.55 -2.06823,4.75 l -1.90528,4 -2.55677,2.46924 c -1.40622,1.35809 -4.55648,4.00918 -7.00057,5.89133 l -4.4438,3.42208 -7.40155,3.51498 -7.40155,3.51498 -7.15465,0.30455 z M 53.523233,559 l -2.203788,0 -6.076139,-3.03628 -6.076139,-3.03629 -3.333584,-3.80693 c -1.833471,-2.09382 -4.110781,-4.7706 -5.060689,-5.94841 -0.949908,-1.17781 -2.011192,-3.27336 -2.358408,-4.65678 C 28.06727,537.13189 27.434105,536 27.007453,536 l -0.775732,0 -2.724757,-7.25 -2.724757,-7.25 -1.749429,-10.27513 -1.749429,-10.27512 0.254371,-5.22488 c 0.139904,-2.87368 0.563302,-7.24074 0.940885,-9.70458 0.377582,-2.46384 1.3014,-5.95134 2.052927,-7.75 C 21.28306,476.47163 21.665266,475 21.380879,475 c -0.284387,0 0.498214,-1.4625 1.739113,-3.25 1.240899,-1.7875 4.084041,-4.99919 6.318094,-7.13709 L 33.5,460.72583 l 6.380488,-2.93204 6.380488,-2.93203 6.796669,-0.56981 6.796669,-0.56981 5.322843,1.69659 c 2.927564,0.93313 7.695633,2.87444 10.595709,4.31402 2.900076,1.43959 5.767676,3.21364 6.372444,3.94234 0.604769,0.7287 1.474495,1.32491 1.932726,1.32491 0.45823,0 2.54063,1.1552 4.627555,2.5671 2.086925,1.41191 4.919409,3.58903 6.294409,4.83806 1.375,1.24902 3.692632,3.63958 5.15029,5.31234 1.45767,1.67276 3.23958,4.10813 3.95981,5.41194 0.72023,1.30381 1.19537,2.93306 1.05587,3.62056 l -0.25364,1.25 0.83103,0 0.83103,0 0.37702,2.25 c 0.20737,1.2375 0.39266,7.875 0.41177,14.75 0.0191,6.875 -0.10811,13.85 -0.28272,15.5 -0.17461,1.65 -0.65177,3.9 -1.06036,5 -0.40858,1.1 -1.42494,3.575 -2.25856,5.5 l -1.51568,3.5 -3.743333,4.25 -3.743335,4.25 -1.296263,0 c -0.712944,0 -1.446262,0.3375 -1.629596,0.75 C 91.65,544.1625 85.875,547.30741 79,550.73869 l -12.5,6.23869 -5.38649,1.01131 C 58.150941,558.54491 54.735316,559 53.523233,559 z m 110.590277,-2.10045 c -0.88743,-0.0553 -3.26304,-0.49033 -5.27913,-0.96684 -2.01609,-0.47652 -6.40237,-2.19209 -9.74729,-3.8124 -3.34493,-1.6203 -8.26593,-4.54939 -10.93557,-6.50908 l -4.85389,-3.56308 -2.72763,-4.12173 c -1.50019,-2.26695 -3.39788,-5.99029 -4.21708,-8.27408 l -1.48946,-4.15234 0.0305,-12.55632 0.0305,-12.55633 1.47296,-5.65507 1.47296,-5.65506 2.65084,-4.52332 2.65084,-4.52331 4.84066,-4.35217 4.84066,-4.35217 8.70358,-4.41313 8.70358,-4.41312 8.6197,0 8.6197,0 8.07365,4.26969 8.07365,4.26968 4.99143,4.23032 c 2.74528,2.32667 6.1983,5.92193 7.67337,7.98948 l 2.68194,3.75916 1.0312,4.24084 c 0.56716,2.33245 1.2611,5.14083 1.54209,6.24083 0.28098,1.1 0.67934,6.38501 0.88522,11.74448 l 0.37434,9.74447 -0.86977,0.53755 -0.86977,0.53755 0.52582,1.37028 0.52583,1.37028 -1.98061,4.34769 c -1.08933,2.39124 -1.9081,4.67653 -1.8195,5.07844 0.0886,0.40191 -0.89722,1.47203 -2.19074,2.37804 l -2.35184,1.6473 1.35184,0.85665 1.35185,0.85664 -2.1933,0.0153 -2.19329,0.0153 -1.30671,1.80792 c -0.71868,0.99435 -3.35342,3.20351 -5.85497,4.90925 -2.50155,1.70573 -7.67655,4.71093 -11.5,6.67822 l -6.95173,3.5769 -5.38649,1.01385 c -2.96257,0.55763 -6.11257,0.96866 -7,0.91341 z m 109.99764,-5.16843 -7.61115,0.23333 -4,-1.31951 c -2.2,-0.72573 -6.475,-2.57674 -9.5,-4.11337 -3.025,-1.53662 -5.725,-3.07636 -6,-3.42164 -0.275,-0.34528 -2.18443,-1.74876 -4.24317,-3.11886 -2.05874,-1.37009 -3.74624,-2.75858 -3.75,-3.08553 -0.004,-0.32695 -1.13713,-1.90195 -2.5186,-3.5 l -2.51178,-2.90554 -2.04553,-5.44068 -2.04553,-5.44068 0.0421,-10.55932 c 0.0231,-5.80763 0.20372,-11.72097 0.40129,-13.14076 0.19758,-1.4198 1.60724,-5.1323 3.13259,-8.25 L 236.2347,482 l 1.04932,0 1.04931,0 -0.58333,-0.58333 -0.58333,-0.58334 1.67852,-1.66666 c 0.92319,-0.91667 3.69819,-3.30886 6.16667,-5.31598 l 4.48814,-3.64931 8,-3.97865 c 4.4,-2.18826 9.74658,-4.53797 11.8813,-5.22158 l 3.8813,-1.24292 7.63849,0.44219 7.6385,0.44218 5.4802,2.53877 5.48021,2.53877 4.79733,4.26658 4.79734,4.26658 2.65549,5.12335 c 1.46051,2.81784 2.68361,5.34835 2.71798,5.62335 0.0344,0.275 0.34165,0.95 0.68284,1.5 0.3412,0.55 0.92159,3.25 1.28976,6 0.36817,2.75 0.8698,7.7 1.11474,11 0.24493,3.3 0.58344,7.4625 0.75224,9.25 l 0.3069,3.25 -0.6962,0 -0.6962,0 0.13889,1.75 c 0.0764,0.9625 0.58889,2.08061 1.13889,2.48469 l 1,0.73468 -1.30202,0.0153 -1.30202,0.0153 -1.16562,3.25 c -0.64109,1.7875 -1.06768,3.5875 -0.94798,4 L 315,529 l -1.16667,0 -1.16666,0 0.70059,0.70059 0.70058,0.70059 -5.78392,5.36645 -5.78392,5.36644 -10.38885,5.18186 -10.38886,5.18185 -7.61114,0.23334 z M 796,550.22348 c -1.925,0.27381 -4.625,0.29518 -6,0.0475 -1.375,-0.24769 -5.875,-1.84073 -10,-3.5401 -4.125,-1.69936 -9.525,-4.20115 -12,-5.55953 -2.475,-1.35837 -6.40393,-3.76834 -8.73095,-5.35549 l -4.23095,-2.88571 -3.26905,-4.06789 c -1.79798,-2.23735 -3.3253,-4.47162 -3.39405,-4.96507 -0.0688,-0.49344 -0.2375,-1.12217 -0.375,-1.39717 -0.1375,-0.275 -0.31314,-0.8375 -0.39031,-1.25 -0.0772,-0.4125 -0.41902,-1.2 -0.75965,-1.75 -0.34063,-0.55 -0.93684,-2.91866 -1.3249,-5.26369 -0.38806,-2.34503 -0.72474,-9.32003 -0.74817,-15.5 l -0.0426,-11.23631 2.95714,-6.5 2.95713,-6.5 5.23565,-4.70667 c 2.87961,-2.58867 6.44617,-5.34341 7.92569,-6.12165 1.47952,-0.77823 5.36575,-2.79763 8.63606,-4.48754 l 5.94602,-3.07257 6.83897,-1.22219 6.83897,-1.22219 6.46223,1.19071 6.46223,1.19072 5.25278,3.07173 c 2.88903,1.68946 6.31308,4.04102 7.60901,5.2257 1.29593,1.18467 3.71105,4.1115 5.36693,6.50407 l 3.01069,4.35011 1.24823,4.73184 1.24824,4.73184 0.18465,9.1262 0.18465,9.12621 -1.03759,3.85331 c -0.57067,2.11933 -1.20721,5.17565 -1.41452,6.79184 l -0.37693,2.93853 -4.08428,8.73863 -4.08428,8.73863 -2.55101,2.75115 c -1.40306,1.51314 -2.55101,3.07504 -2.55101,3.4709 0,0.39586 -1.23544,1.86532 -2.74543,3.26546 -1.50999,1.40014 -4.54749,3.38162 -6.75,4.40329 -2.20251,1.02167 -5.57957,2.08161 -7.50457,2.35542 z m -110.38649,-1.30853 c -0.61243,-0.0468 -3.36351,-0.64346 -6.11351,-1.32598 -2.75,-0.68252 -7.475,-2.50655 -10.5,-4.05339 -3.025,-1.54685 -7.975,-4.5029 -11,-6.56901 -3.025,-2.06611 -6.71356,-5.04132 -8.19679,-6.61157 -1.48324,-1.57025 -3.89308,-5.105 -5.35522,-7.855 -1.46213,-2.75 -2.83503,-5.9 -3.05088,-7 -0.21585,-1.1 -0.4268,-5.6 -0.46879,-10 -0.042,-4.4 0.18676,-10.15281 0.50832,-12.78401 l 0.58465,-4.78401 3.22052,-5.71599 c 1.77128,-3.1438 4.12899,-6.77662 5.23935,-8.07294 1.11036,-1.29632 4.04384,-3.74162 6.51884,-5.434 2.475,-1.69238 4.725,-3.36147 5,-3.70908 0.275,-0.34762 2.975,-2.02009 6,-3.71659 l 5.5,-3.08456 5.86927,-1.19507 5.86927,-1.19507 4.5933,0.68881 c 2.52631,0.37885 6.41014,1.40226 8.63073,2.27426 2.22058,0.87199 6.76582,3.29229 10.10051,5.37844 l 6.06309,3.793 3.57762,3.86672 c 1.9677,2.1267 4.33612,5.33349 5.26317,7.1262 0.92705,1.79271 1.89674,4.22797 2.15487,5.41168 0.25812,1.18372 0.81509,4.18522 1.2377,6.67002 l 0.76837,4.51781 -0.0911,11.49864 -0.091,11.49863 -3.30205,6.48356 -3.30205,6.48355 -4.67085,4.29358 -4.67084,4.29358 -7,3.44706 -7,3.44707 -5.38649,1.00935 c -2.96257,0.55515 -5.88757,0.97109 -6.5,0.92431 z M 373,546.92782 l -5.5,-0.0233 -4.27487,-1.49824 c -2.35118,-0.82404 -6.89378,-3.03315 -10.09467,-4.90913 l -5.8198,-3.4109 -3.59876,-3.98339 c -1.97932,-2.19087 -4.33353,-5.40428 -5.23158,-7.14093 -0.89805,-1.73664 -1.81081,-3.90102 -2.02835,-4.80973 -0.21754,-0.90872 -0.86078,-3.56595 -1.42941,-5.90495 l -1.03387,-4.25275 -0.33554,-9.15623 -0.33554,-9.15624 0.83465,-4.59102 c 0.45906,-2.52506 1.39754,-5.71602 2.0855,-7.09102 0.68797,-1.375 2.45357,-4.44172 3.92356,-6.81493 l 2.67271,-4.31492 6.03935,-4.8469 6.03935,-4.8469 5.58115,-2.08817 5.58115,-2.08818 8.31326,0 8.31326,0 3.39923,1.0763 c 1.86957,0.59197 6.25954,2.459 9.75549,4.14897 l 6.35627,3.07266 5.39373,5.3508 5.39373,5.3508 0,1.50023 0,1.50024 1,0 c 0.55,0 0.90206,0.3375 0.78236,0.75 -0.1197,0.4125 0.37066,2.325 1.08969,4.25 0.71903,1.925 1.56506,5.975 1.88007,9 0.31501,3.025 0.54301,8.425 0.50666,12 -0.0364,3.575 -0.36305,8.075 -0.726,10 -0.36296,1.925 -0.70631,4.0625 -0.76302,4.75 l -0.10309,1.25 -1,0 -1,0 0.65799,0.65799 0.65799,0.65799 -1.11377,1.34201 -1.11377,1.34201 0.69054,0 c 0.3798,0 -0.24329,1.31144 -1.38463,2.91431 l -2.07517,2.91431 1.25707,0.50674 1.25708,0.50675 -2,0.0981 -2,0.0981 -3.87297,3.38048 -3.87296,3.38048 -7.36321,3.59219 c -4.04976,1.9757 -9.28192,4.03485 -11.62703,4.57589 l -4.26383,0.9837 -5.5,-0.0233 z m 207.32944,-0.99747 -5.82944,-0.0697 -4.79879,-1.47484 c -2.63933,-0.81116 -6.46433,-2.42832 -8.5,-3.59371 -2.03566,-1.16538 -4.8789,-2.72348 -6.3183,-3.46245 -1.4394,-0.73897 -4.70902,-3.18496 -7.26581,-5.43554 l -4.64871,-4.09196 -2.45522,-4.18952 -2.45522,-4.18951 -1.37638,-6.56614 -1.37638,-6.56614 0.19556,-8.89544 0.19557,-8.89545 0.7644,-2.5 c 0.42042,-1.375 2.06198,-5.34008 3.64792,-8.81129 l 2.88351,-6.3113 5.25393,-5.21396 5.25392,-5.21395 6.5,-2.94412 6.5,-2.94412 8.5,0.0154 8.5,0.0154 5.5,2.40037 c 3.025,1.3202 9.1,4.73821 13.5,7.59557 4.4,2.85737 9.125,6.30514 10.5,7.66173 1.375,1.35659 3.47603,3.61685 4.66895,5.0228 l 2.16894,2.55627 -0.58561,0.58562 L 618.66667,481 620,481 l 1.33333,0 -0.65799,0.65799 -0.65799,0.65799 1.11377,1.34201 C 621.74369,484.3961 621.97593,485 621.6472,485 l -0.5977,0 1.06365,2.75 c 0.585,1.5125 1.24203,4.1 1.46007,5.75 0.21804,1.65 0.44042,4.35 0.49419,6 0.0538,1.65 -0.12699,5.77817 -0.4017,9.17371 l -0.49947,6.17371 -1.81208,3.82629 c -0.99664,2.10446 -2.49655,4.67802 -3.33312,5.71903 -0.83657,1.04101 -2.83753,3.44038 -4.44658,5.33195 l -2.92555,3.43921 -5.57445,3.7654 -5.57446,3.7654 -6.67056,2.65265 -6.67055,2.65265 -5.82945,-0.0697 z m -105.82944,-0.996 -5,-0.0419 -5.5,-1.79285 c -3.025,-0.98606 -7.3,-2.86042 -9.5,-4.16524 -2.2,-1.30482 -4.58462,-2.93881 -5.29915,-3.6311 -0.71454,-0.69229 -2.06477,-1.83123 -3.00053,-2.53098 -0.93575,-0.69976 -2.83528,-2.84728 -4.22117,-4.77228 -1.38589,-1.925 -3.05437,-4.625 -3.70774,-6 -0.65337,-1.375 -1.66782,-4.3893 -2.25434,-6.69844 l -1.06639,-4.19845 -0.38872,-8.30155 -0.38872,-8.30156 0.9332,-5.5 0.93321,-5.5 3.64284,-7.25 c 2.00356,-3.9875 3.96794,-7.25 4.36529,-7.25 0.39735,0 3.13665,-1.98416 6.08734,-4.40925 l 5.36488,-4.40926 7,-2.84074 7,-2.84075 10,0 10,0 6.76443,3.30797 6.76443,3.30797 5.48557,5.52957 5.48557,5.52956 0,1.41247 c 0,0.77685 0.34015,1.41246 0.75589,1.41246 0.41574,0 1.33243,1.30249 2.03708,2.89443 0.70466,1.59193 1.53367,3.95443 1.84223,5.25 0.30857,1.29556 0.68589,7.30557 0.8385,13.35557 l 0.27745,11 -0.56295,0.9577 c -0.30963,0.52673 -0.67364,1.99575 -0.80891,3.26448 -0.13527,1.26874 -1.39971,4.82697 -2.80988,7.90718 l -2.56394,5.60038 -3.16704,3.63513 c -1.74188,1.99932 -3.65561,3.86013 -4.25274,4.13513 -0.59713,0.275 -4.31624,2.4448 -8.26468,4.82178 l -7.17899,4.32178 -5.32101,1.41635 -5.32101,1.41635 -5,-0.0419 z M 219.61351,462.89764 c -1.16243,-0.0563 -3.61063,-0.45655 -5.44044,-0.88944 -1.82981,-0.43289 -6.24537,-2.26839 -9.81236,-4.0789 l -6.48542,-3.29183 -6.62077,-5.56873 -6.62077,-5.56874 -2.38091,-4.78434 c -1.30949,-2.63139 -2.56411,-5.55639 -2.78804,-6.5 -0.22393,-0.94361 -0.81136,-3.35278 -1.30541,-5.3537 l -0.89827,-3.63805 0.40386,-6.86195 0.40386,-6.86196 1.42622,-5 1.42622,-5 2.65963,-4 2.65963,-4 5.43713,-4.65921 5.43713,-4.65921 7.51143,-3.71147 7.51142,-3.71146 6.41189,-0.51469 6.41188,-0.51468 4.76929,1.31902 c 2.62311,0.72546 7.01929,2.34502 9.76929,3.59901 2.75,1.254 6.31996,3.08386 7.93325,4.06635 1.61329,0.98248 3.86261,2.46134 4.99849,3.28634 1.13588,0.825 4.09092,3.5323 6.56675,6.01623 l 4.50151,4.51623 2,3.98377 c 1.1,2.19107 2.225,4.20877 2.5,4.48377 0.275,0.275 0.69355,1.175 0.9301,2 0.23656,0.825 0.55137,5.53123 0.69959,10.45828 l 0.26948,8.95829 -0.86455,1.04171 c -0.4755,0.57295 -0.84235,1.26672 -0.81522,1.54172 0.0271,0.275 -0.27189,1.9625 -0.66449,3.75 -0.3926,1.7875 -1.01557,3.2621 -1.38437,3.2769 -0.36879,0.0148 -1.7735,1.81479 -3.12157,4 -1.34806,2.1852 -2.79011,3.9731 -3.20454,3.9731 -0.41444,0 -1.82027,1.0125 -3.12407,2.25 -1.3038,1.2375 -3.27232,2.925 -4.37449,3.75 -1.10217,0.825 -2.86837,2.07433 -3.92491,2.77629 -1.05653,0.70195 -5.26994,2.8675 -9.36314,4.81233 l -7.44217,3.53604 -4.94432,0.93767 c -2.71937,0.51572 -5.89539,0.89161 -7.05782,0.83531 z m -99.90108,-2.48484 c -2.86684,0.23178 -6.33591,0.18789 -7.70906,-0.0976 -1.37314,-0.28545 -5.19814,-1.74576 -8.5,-3.24514 C 100.20152,455.57073 93.675,451.81967 89,448.73442 c -4.675,-3.08524 -9.631468,-6.65013 -11.014372,-7.92197 -1.382905,-1.27185 -3.510208,-3.92407 -4.727339,-5.89382 l -2.212967,-3.58137 -1.399107,-5.41863 -1.399107,-5.41863 0.350617,-2 c 0.192839,-1.1 0.578065,-3.77668 0.856058,-5.94818 l 0.50544,-3.94819 2.546494,-5.20484 2.546493,-5.20485 1.537277,-0.58991 1.537277,-0.5899 -0.622399,-1.00707 L 76.881966,395 l 0.870456,0 c 0.47875,0 1.742808,-0.79474 2.809017,-1.7661 1.066208,-0.97135 4.863561,-3.79151 8.438561,-6.26701 3.575,-2.4755 8.335984,-5.49154 10.579965,-6.70232 2.243985,-1.21077 6.630585,-2.86576 9.748005,-3.67775 l 5.66804,-1.47633 6.24895,1.00636 6.24896,1.00637 7.95146,4.18839 7.95146,4.18839 6.35746,6.25507 6.35747,6.25507 -0.5722,0.92583 -0.57219,0.92583 0.91583,0.56602 0.91583,0.56601 1.13905,4.75309 c 0.62647,2.61419 1.30237,7.45308 1.50199,10.75308 l 0.36294,6 -0.9903,5.45616 -0.99031,5.45617 -2.1612,3.99561 c -1.18867,2.19759 -2.72371,4.61196 -3.41121,5.36527 -0.6875,0.75331 -1.25,1.7875 -1.25,2.29822 0,0.51071 -0.4539,0.92857 -1.00866,0.92857 -0.55476,0 -2.30453,1.15463 -3.88839,2.56585 -1.58385,1.41122 -4.39245,3.42395 -6.24134,4.47273 -1.84888,1.04879 -4.71161,2.53092 -6.36161,3.29362 -1.65,0.76271 -4.25441,1.89803 -5.78757,2.52295 -1.53317,0.62492 -5.13317,1.32586 -8,1.55765 z m 511.56912,-2.46168 -4.78155,-0.0489 -6,-2.35849 c -3.3,-1.29718 -8.53836,-3.75737 -11.64081,-5.46709 -3.10244,-1.70973 -6.19504,-3.77641 -6.87244,-4.59263 -0.6774,-0.8162 -1.71611,-1.48401 -2.30823,-1.48401 -0.59213,0 -3.1768,-2.23699 -5.74371,-4.97109 l -4.66711,-4.9711 -2.88385,-5.69983 -2.88385,-5.69983 0.0172,-9.57908 0.0172,-9.57907 2.43034,-4.5 c 1.33668,-2.475 3.69405,-6.09701 5.2386,-8.04891 1.54455,-1.9519 4.94317,-5.16663 7.5525,-7.14384 2.60933,-1.97721 6.76924,-4.7758 9.24424,-6.21908 2.475,-1.44327 6.975,-3.78551 10,-5.20495 l 5.5,-2.58082 6.07222,-0.52384 6.07222,-0.52384 5.42778,1.59819 5.42778,1.59819 6.28171,3.88887 c 3.45494,2.13888 7.96559,5.41239 10.02365,7.27445 2.05806,1.86207 4.66923,4.73558 5.8026,6.38558 1.13337,1.65 2.77774,4.84042 3.65417,7.08982 0.87642,2.2494 1.92798,6.0744 2.3368,8.5 0.40882,2.4256 0.73403,6.88518 0.72268,9.91018 -0.0113,3.025 -0.35251,7.41014 -0.75813,9.74476 l -0.7375,4.24476 -0.9293,0.57434 -0.9293,0.57434 0.5053,0.81759 0.5053,0.8176 -1.48899,1.23575 C 670.67005,433.6888 670,434.77598 670,435.4251 l 0,1.18021 -4.25,4.33468 -4.25,4.33468 -6.73661,4.34753 -6.73662,4.34753 -5.98184,2.01513 -5.98184,2.01514 -4.78154,-0.0489 z m 104.41923,-2.03493 C 735.04035,455.8701 732.025,455.28118 729,454.60748 l -5.5,-1.2249 -5.05919,-2.61145 c -2.78256,-1.43629 -7.40619,-4.46664 -10.27474,-6.73409 l -5.21554,-4.12265 -2.89418,-3.9953 -2.89417,-3.99529 -1.83109,-5.7119 L 693.5,420.5 l 0.067,-9.5853 0.067,-9.5853 2.3522,-5.9147 2.3522,-5.9147 1.72876,-1.6939 c 0.95081,-0.93164 1.88717,-2.06434 2.08079,-2.51711 0.19361,-0.45278 2.37703,-2.4547 4.85203,-4.44873 2.475,-1.99402 7.65,-5.31488 11.5,-7.37969 l 7,-3.75419 8.04313,-0.46773 8.04313,-0.46774 6.95687,2.74527 c 3.82628,1.50989 7.63187,3.29858 8.45687,3.97486 0.825,0.67629 4.79324,3.13026 8.81831,5.45329 l 7.31831,4.22368 3.3762,3.27873 3.37619,3.27873 2.11331,4.05448 2.11331,4.05447 0.34669,5.96212 0.3467,5.96211 -0.94492,4.87067 c -0.51971,2.67888 -1.37674,5.65207 -1.90451,6.60711 -0.52778,0.95504 -0.95959,2.60504 -0.95959,3.66667 0,1.06163 -0.3375,2.08023 -0.75,2.26357 -0.4125,0.18333 -2.67708,2.92083 -5.03239,6.08333 l -4.2824,5.75 -1.4676,0 c -0.80719,0 -1.46841,0.3375 -1.4694,0.75 -9.8e-4,0.4125 -1.91348,1.95603 -4.25,3.43007 -2.33651,1.47404 -6.94821,4.0084 -10.24821,5.6319 l -6,2.95182 -5.29922,1.11811 c -2.91457,0.61495 -5.83957,1.08039 -6.5,1.03429 z M 327,439.37709 c -2.475,0.29831 -4.95,0.37486 -5.5,0.17012 -0.55,-0.20475 -2.24885,-0.64805 -3.77521,-0.98512 l -2.77521,-0.61285 -4.04721,-3.65641 -4.0472,-3.6564 -1.98005,-3.88121 -1.98004,-3.8812 -0.0281,-5.86621 -0.0281,-5.8662 1.67421,-3.52813 c 0.92081,-1.94048 2.86365,-4.71758 4.31741,-6.17134 1.45376,-1.45376 4.4491,-3.57445 6.6563,-4.71263 l 4.01311,-2.06944 6,-0.004 6,-0.004 4.71254,2.10099 4.71253,2.10098 3.0208,3.09022 c 1.66144,1.69963 3.71485,4.43239 4.56314,6.07281 0.84829,1.64041 1.25069,2.98257 0.89423,2.98257 l -0.64813,0 0.96591,1.25 0.96592,1.25 -0.30512,4.21467 -0.30513,4.21467 -1.94676,3.78533 c -1.07072,2.08193 -3.22548,4.9987 -4.78835,6.48172 l -2.84158,2.69638 -4.5,1.97097 -4.5,1.97097 -4.5,0.54238 z m 201.19185,-2.92474 -4.69185,0.50582 -4.59088,-1.46295 -4.59087,-1.46294 -4.64781,-4.09117 -4.64781,-4.09116 -1.53458,-3.2339 -1.53459,-3.23389 -0.10678,-3.44108 -0.10678,-3.44108 1.14595,-4.1659 1.14595,-4.1659 3.7341,-3.74146 3.7341,-3.74146 5,-2.33287 5,-2.33287 6.04424,-0.01 6.04423,-0.01 5.45577,3.25951 5.45576,3.2595 2.75213,4.9905 2.75214,4.99049 -0.4052,5.5 c -0.22285,3.025 -0.48225,5.5 -0.57644,5.5 -0.0942,0 -0.36426,1.04048 -0.60015,2.31217 l -0.42891,2.31217 -4.24351,4.5275 -4.24352,4.5275 -3.31142,1.3836 c -1.82129,0.76098 -5.42276,1.61122 -8.00327,1.88941 z M 55.068499,381.93419 50.5,381.86838 45.250674,380.45486 c -2.88713,-0.77744 -6.989541,-2.30132 -9.11647,-3.38639 -2.126929,-1.08508 -5.252274,-3.13838 -6.94521,-4.5629 -1.692937,-1.42451 -4.048649,-4.16045 -5.234917,-6.07987 -1.186267,-1.91943 -3.003738,-6.28694 -4.038824,-9.7056 l -1.881974,-6.21574 0.329815,-12.00218 0.329815,-12.00218 1.128795,-2.75 c 0.620837,-1.5125 0.924606,-2.75 0.675043,-2.75 -0.249563,0 0.718682,-3.2625 2.151657,-7.25 l 2.605407,-7.25 1.123095,-0.73469 1.123094,-0.73468 -0.831559,-0.0153 -0.83156,-0.0153 2.299811,-3.75 c 1.264895,-2.0625 2.764097,-4.32656 3.331559,-5.03124 0.567462,-0.70469 2.79476,-3.12589 4.949552,-5.38046 l 3.917803,-4.09922 4.549363,-2.01239 4.549363,-2.0124 5.242173,0 5.242174,0 8.254348,3.29393 c 4.539891,1.81166 10.745688,4.64738 13.79066,6.30159 3.044972,1.65421 7.336313,4.23509 9.536313,5.73529 2.2,1.5002 5.473799,4.35419 7.27511,6.34221 1.80131,1.98802 3.78398,4.85165 4.40593,6.36363 0.62195,1.51198 1.21711,3.19906 1.32258,3.74906 0.10546,0.55 0.29472,1.225 0.42058,1.5 0.12585,0.275 0.42087,1.4 0.65559,2.5 0.23472,1.1 0.487,6.95 0.56064,13 l 0.13388,11 -0.74387,3.5 -0.74386,3.5 -3.60161,5.5 c -1.980882,3.025 -4.295363,6.20577 -5.143288,7.06837 -0.847925,0.86261 -4.642861,3.70455 -8.433191,6.31543 -3.79033,2.61088 -9.372,6.07072 -12.403712,7.68854 -3.031712,1.61781 -7.774708,3.61337 -10.539992,4.43457 L 59.636998,382 55.068499,381.9342 z m 317.367611,-5.03464 c -2.71486,-0.0553 -6.62544,-0.4986 -8.69019,-0.98522 -2.06474,-0.48662 -6.04284,-2.04457 -8.84021,-3.46211 l -5.08614,-2.57734 -4.36063,-4.0195 -4.36064,-4.01949 -2.89523,-5.16795 c -1.59238,-2.84237 -3.23172,-6.51794 -3.64298,-8.16794 -0.41126,-1.65 -0.94436,-3.9 -1.18467,-5 -0.24031,-1.1 -0.4319,-6.13167 -0.42576,-11.18148 l 0.0112,-9.18149 0.97768,-4.31851 c 0.53772,-2.37519 2.15,-6.73783 3.58285,-9.69476 l 2.60518,-5.37624 4.09942,-4.37376 4.09942,-4.37376 1.25398,0 c 0.68969,0 1.40398,-0.3375 1.58732,-0.75 0.18333,-0.4125 3.48333,-2.27679 7.33333,-4.14287 l 7,-3.39287 7.24551,-0.48835 7.2455,-0.48835 4.7545,1.31266 c 2.61497,0.72196 6.32949,2.02969 8.25449,2.90606 1.925,0.87638 5.3,2.77782 7.5,4.22542 2.2,1.4476 5.47327,4.00839 7.27393,5.69064 l 3.27394,3.05864 2.41572,4.8096 c 1.32865,2.64528 2.69931,6.14831 3.0459,7.78451 0.3466,1.6362 0.84239,4.77491 1.10176,6.97491 0.25936,2.2 0.40921,7.15 0.33298,11 -0.0762,3.85 -0.28236,8.125 -0.45808,9.5 -0.17572,1.375 -0.39821,2.5 -0.49443,2.5 -0.0962,0 -0.38978,1.51564 -0.65237,3.36809 l -0.47742,3.3681 -2.37745,2.56398 -2.37746,2.56398 0.50551,0.81792 0.5055,0.81793 -1.61803,0 -1.61803,0 0.51011,0.82538 0.51011,0.82537 -4.1163,3.42463 c -2.26396,1.88354 -6.78212,4.85964 -10.04035,6.61354 l -5.92406,3.18893 -6.22463,1.56107 -6.22463,1.56108 -4.93611,-0.10045 z m 105.13239,-0.95333 -6.0685,-0.0538 -5.5,-1.77819 c -3.025,-0.97801 -7.49198,-2.8035 -9.92663,-4.05666 l -4.42662,-2.27846 -5.39455,-5.10194 -5.39454,-5.10193 -2.54992,-5.39009 -2.54992,-5.39008 -0.75599,-6.14755 -0.75599,-6.14755 0.2274,-8.5 0.2274,-8.5 1.8323,-5.75 1.8323,-5.75 0.81738,0 c 0.44956,0 0.81738,-0.4696 0.81738,-1.04356 0,-0.57396 1.67122,-2.84983 3.71382,-5.05749 l 3.71382,-4.01392 5.53618,-3.35457 5.53618,-3.35457 6.5,-2.18375 6.5,-2.18376 7.00334,0.35279 7.00334,0.35278 8.49666,4.11514 8.49666,4.11514 4.03435,3.87788 c 2.21889,2.13284 5.04366,5.04496 6.27727,6.47137 l 2.24293,2.59349 0.41603,2.16027 c 0.22882,1.18816 0.76765,2.72109 1.19741,3.40652 0.42975,0.68543 0.93108,2.33656 1.11406,3.66918 0.18298,1.33261 0.69844,3.13261 1.14546,4 l 0.81277,1.57706 -0.31335,1.96596 -0.31336,1.96596 0.75118,1.03404 c 0.41315,0.56872 0.67404,2.04654 0.57975,3.28404 l -0.17143,2.25 0.98591,0 0.98591,0 -1.00297,1.25 -1.00297,1.25 -0.67942,5.5 c -0.37368,3.025 -0.80978,6.4 -0.96911,7.5 -0.15933,1.1 -0.66968,2.9 -1.1341,4 -0.46443,1.1 -1.31959,2.51264 -1.90037,3.13919 -0.58077,0.62656 -1.95595,2.38835 -3.05595,3.91509 -1.1,1.52674 -2.675,3.45783 -3.5,4.29132 -0.825,0.83349 -4.42538,3.40847 -8.00084,5.72218 l -6.50083,4.20675 -5.43067,1.61274 L 483.637,376 l -6.0685,-0.0538 z m -307.62284,-1.52418 -5.44566,0.48549 -3.87244,-0.96357 c -2.12984,-0.52997 -6.85484,-2.53492 -10.5,-4.45544 -3.64516,-1.92052 -8.84886,-5.1786 -11.56378,-7.24018 l -4.93623,-3.74834 -3.28046,-4.57332 -3.28047,-4.57332 -1.60082,-5.92668 -1.60083,-5.92668 -0.505,-10.5 -0.505,-10.5 2.00004,-5.6959 2.00004,-5.6959 3.32248,-4.4572 3.32247,-4.45721 6.04436,-3.97166 c 3.3244,-2.18442 7.97687,-4.95755 10.33881,-6.16253 l 4.29443,-2.19085 6.83278,-0.57284 6.83277,-0.57283 4.82843,1.20107 c 2.65563,0.66059 7.30342,2.36311 10.32842,3.78339 3.025,1.42027 7.56851,3.9796 10.09668,5.68739 2.52818,1.70779 6.12818,4.49153 8,6.1861 1.87183,1.69457 3.95911,3.94457 4.6384,5 0.6793,1.05543 1.95476,3.49397 2.83436,5.41897 0.8796,1.925 1.80047,4.54204 2.04638,5.81564 0.2459,1.2736 0.50499,5.5486 0.57574,9.5 0.0708,3.9514 -0.0238,9.54686 -0.21017,12.43436 l -0.33881,5.25 -0.69348,0 -0.69348,0 -0.6123,3.82911 -0.6123,3.82911 -2.08645,2.42089 c -1.14755,1.33149 -3.11822,3.54589 -4.37926,4.92089 -1.26105,1.375 -3.14739,3.175 -4.19187,4 -1.04448,0.825 -3.69329,2.64553 -5.88625,4.04563 -2.19295,1.40009 -6.71164,3.74831 -10.04153,5.21826 l -6.05434,2.67265 -5.44566,0.4855 z m 108.55434,0.27749 -9,0.34281 -5.41304,-2.00406 c -2.97717,-1.10224 -8.60139,-3.89823 -12.49826,-6.21332 l -7.08522,-4.20926 -4.80992,-4.4991 -4.80991,-4.49911 -2.43893,-5.33206 -2.43894,-5.33206 -0.72027,-5.22669 c -0.39615,-2.87467 -0.64507,-8.24457 -0.55317,-11.93309 l 0.1671,-6.70642 1.23073,-4.29358 c 0.6769,-2.36148 1.26556,-4.51859 1.30811,-4.79359 0.0426,-0.275 0.85986,-2.13985 1.81622,-4.1441 l 1.73883,-3.6441 5.44997,-4.90179 5.44997,-4.90179 7.30336,-3.60895 7.30337,-3.60896 5.19141,-1.07203 5.19141,-1.07204 5.80859,1.04572 5.80859,1.04572 8.48454,4.07326 8.48454,4.07327 6.26546,6.0164 6.26546,6.0164 0,1.3415 0,1.34149 0.81095,0 0.81095,0 1.29941,5.07004 1.29942,5.07005 0.19153,8.09059 c 0.10535,4.44983 -0.15829,10.99641 -0.58585,14.54796 l -0.7774,6.45738 -1.14695,1.38199 -1.14695,1.38199 0.74489,0 0.74489,0 -1.20854,1.4562 -1.20853,1.45619 0.58035,0.93902 0.58034,0.93902 -1.49425,0.5734 -1.49426,0.5734 0,1.41272 0,1.41273 -4.75,4.61811 -4.75,4.61812 -1.25,5.5e-4 L 298,368 l 0,0.87686 0,0.87685 -5.25,2.3015 -5.25,2.3015 -9,0.34282 z m 516.0685,0.25273 -4.0685,-0.0477 -4.33063,-1.51709 c -2.38185,-0.8344 -6.43185,-2.67543 -9,-4.09118 -2.56815,-1.41575 -8.26937,-4.95614 -12.66937,-7.86754 -4.4,-2.9114 -9.37176,-6.63857 -11.04835,-8.28259 l -3.04835,-2.98914 -2.75633,-5.0643 c -1.51599,-2.78536 -2.93506,-5.85818 -3.15351,-6.82849 -0.21844,-0.97031 -0.65759,-2.8892 -0.97587,-4.2642 -0.31829,-1.375 -0.59599,-7.68998 -0.61711,-14.03329 l -0.0384,-11.5333 1.23491,-4.9667 1.23491,-4.96671 2.34062,-3.74053 2.34063,-3.74053 5.57145,-4.37285 5.57146,-4.37284 11.35108,-5.79847 11.35108,-5.79848 5.59677,-0.46412 5.59677,-0.46413 4.72413,1.78121 4.72412,1.78121 5.64445,5.79907 5.64444,5.79907 2.95243,6.2957 c 1.62383,3.46263 3.68263,8.09569 4.5751,10.29569 0.89248,2.2 2.34131,6.88042 3.21962,10.40094 0.87832,3.52052 1.76323,8.02052 1.96647,10 0.20324,1.97948 0.4304,6.07406 0.5048,9.09906 0.0744,3.025 -0.11745,7.3 -0.42634,9.5 -0.30889,2.2 -0.84305,5.76164 -1.18702,7.91475 l -0.62541,3.91474 -2.43748,4.58526 c -1.34061,2.52189 -3.65103,5.87376 -5.13427,7.4486 -1.48323,1.57485 -4.31526,3.89941 -6.29338,5.16571 l -3.59659,2.30234 -5.33491,1.5843 -5.33491,1.5843 -4.0685,-0.0477 z m -221.45499,-2.06183 c -0.88743,-0.0603 -3.47874,-0.47872 -5.75846,-0.92992 l -4.14495,-0.82035 -5.1476,-2.60849 -5.1476,-2.60848 -4.9095,-5.01393 -4.90951,-5.01393 -2.48889,-5.19766 c -1.36889,-2.85872 -2.92041,-6.99767 -3.44781,-9.19767 -0.52741,-2.2 -1.01215,-4.675 -1.07721,-5.5 -0.0651,-0.825 -0.25769,-4.65 -0.42808,-8.5 l -0.30979,-7 0.82165,-4 c 0.45191,-2.2 1.36811,-5.8 2.03601,-8 0.6679,-2.2 1.46862,-4.225 1.77939,-4.5 0.31077,-0.275 1.32831,-1.70055 2.26119,-3.1679 l 1.69616,-2.66789 5.78075,-4.40319 c 3.17941,-2.42175 8.25574,-5.78545 11.28074,-7.47487 l 5.5,-3.07169 7,-1.52945 7,-1.52945 5.5,0.89297 5.5,0.89296 8.20819,4.05698 8.20819,4.05697 3.42504,3.23023 3.42503,3.23022 3.21463,5.45202 c 1.76804,2.99861 3.37668,6.29349 3.57474,7.32194 0.19806,1.02846 0.64074,2.75411 0.98374,3.83478 l 0.62362,1.96486 0.0151,11.40815 0.0152,11.40815 -1.59674,3.20074 C 620.71853,342.86694 620,344.91314 620,345.65364 l 0,1.34636 -1,0 -1,0 0,1.46482 0,1.46481 -2,1.07037 -2,1.07037 -0.0134,1.21481 -0.0134,1.21482 -9.20836,5.90684 c -5.06461,3.24877 -11.50401,6.95782 -14.30979,8.24235 l -5.10142,2.33551 -5.31332,1.00765 c -2.92233,0.55421 -6.03941,0.95835 -6.92684,0.89808 z m 108.5,-3.97548 c -0.0624,-0.0468 -2.36351,-0.64256 -5.11351,-1.32397 -2.75,-0.68142 -7.01461,-2.27938 -9.47691,-3.55104 -2.4623,-1.27166 -6.7373,-4.01035 -9.5,-6.08597 -2.7627,-2.07561 -6.2569,-5.12005 -7.76488,-6.7654 -1.50798,-1.64535 -3.82672,-5.17338 -5.15275,-7.84006 L 642.1945,338.5 l -1.01695,-6.65979 -1.01696,-6.65979 0.40675,-7.84021 0.40674,-7.84021 1.93557,-5.27416 1.93558,-5.27416 2.82738,-3.44695 2.82739,-3.44696 8,-5.3505 8,-5.35051 6,-2.42838 6,-2.42838 8,0.0593 8,0.0593 5.5,2.37168 c 3.025,1.30443 7.525,3.75274 10,5.4407 2.475,1.68796 5.99627,4.64402 7.82504,6.56902 l 3.32504,3.5 1.54045,3.5 c 0.84725,1.925 1.7336,4.85 1.96968,6.5 0.23608,1.65 0.51932,7.95 0.62942,14 l 0.2002,11 -0.71563,4.5 c -0.39359,2.475 -1.02776,5.625 -1.40927,7 -0.38151,1.375 -1.36921,3.625 -2.19489,5 -0.82567,1.375 -3.78921,4.65796 -6.58563,7.29546 -2.79643,2.63751 -6.43441,5.51279 -8.08441,6.38953 -1.65,0.87674 -3.225,1.87351 -3.5,2.21505 -0.275,0.34153 -2.75,1.63463 -5.5,2.87356 l -5,2.25259 -5.38649,0.9869 c -2.96257,0.5428 -5.43757,0.94864 -5.5,0.90186 z M 110.0685,283.90878 104.5,283.81757 99,282.06841 c -3.025,-0.96204 -10.333789,-4.03793 -16.241753,-6.83532 l -10.741753,-5.08616 -5.442133,-5.44213 -5.442133,-5.44214 -1.58658,-5.45764 -1.586579,-5.45764 0.589366,-7.74325 0.589366,-7.74325 1.4311,-4.05617 C 61.356005,226.57382 62,223.90512 62,222.87427 L 62,221 l 0.932612,0 0.932613,0 0.674449,-2.25 c 0.370948,-1.2375 2.081725,-4.5 3.801728,-7.25 1.720002,-2.75 3.584324,-5.65121 4.142938,-6.44713 0.558613,-0.79592 3.88538,-4.27781 7.392815,-7.73753 l 6.377154,-6.29041 5.622846,-2.76246 L 97.5,185.5 l 8.5,0.0113 8.5,0.0113 6,3.37895 c 3.3,1.85842 9.375,5.76216 13.5,8.67497 4.125,2.91281 8.625,6.39506 10,7.73833 1.375,1.34327 3.27136,3.38323 4.21414,4.53324 0.94278,1.15 2.67747,3.97919 3.85487,6.28709 l 2.14073,4.19617 0.51762,4.08427 c 0.28469,2.24636 0.47951,7.68428 0.43294,12.08428 -0.0466,4.4 -0.32756,9.54546 -0.62442,11.43435 -0.29687,1.8889 -1.09058,5.0389 -1.76383,7 -0.67324,1.96111 -2.2197,5.14065 -3.43659,7.06565 -1.21688,1.925 -3.47767,4.85117 -5.02399,6.50259 -1.54631,1.65142 -4.61147,4.17293 -6.81147,5.60335 -2.2,1.43042 -5.6798,3.54704 -7.73289,4.70359 -2.05308,1.15655 -6.07226,2.79754 -8.9315,3.64665 L 115.637,284 110.0685,283.9088 z M 327.5,283.28021 c -2.75,0.27734 -6.125,0.31261 -7.5,0.0784 -1.375,-0.23424 -5.13285,-1.35145 -8.35078,-2.4827 -3.21792,-1.13125 -8.61792,-3.64985 -12,-5.59688 L 293.5,271.73895 289.18077,267.61948 284.86154,263.5 282.18077,258 279.5,252.5 l 0,-13.5 0,-13.5 2.7558,-5.70034 2.75581,-5.70035 5.0424,-4.96349 5.0424,-4.96349 9.2018,-4.57014 9.20179,-4.57013 5.53631,-0.6286 5.5363,-0.62859 6.19835,1.58794 6.19834,1.58794 5.26535,2.6665 c 2.89594,1.46658 6.84035,3.82311 8.76535,5.23674 1.925,1.41363 4.18723,3.26229 5.02718,4.10812 0.83995,0.84584 2.46083,2.88789 3.60195,4.53789 1.14113,1.65 2.9709,5.7 4.06617,9 l 1.99139,6 -0.12637,2.75 -0.12636,2.75 0.7168,0 0.7168,0 -0.37538,2.25 c -0.20646,1.2375 -0.62027,4.95 -0.91958,8.25 -0.29932,3.3 -0.76963,7.125 -1.04514,8.5 -0.27552,1.375 -1.04181,3.85 -1.70287,5.5 -0.66106,1.65 -2.34597,4.575 -3.74425,6.5 -1.39827,1.925 -3.58655,4.5125 -4.86285,5.75 -1.27629,1.2375 -2.55237,2.25 -2.83573,2.25 -0.28336,0 -1.99877,1.13157 -3.81203,2.51461 -1.81325,1.38303 -5.94572,3.58262 -9.18327,4.88797 l -5.88646,2.37336 -5,0.50427 z m -107.5,-0.6944 -6.5,0.50263 -6.5,-2.37726 c -3.575,-1.30749 -8.525,-3.41397 -11,-4.68107 -2.475,-1.26709 -6.46139,-3.64748 -8.85865,-5.28975 -2.39726,-1.64227 -5.64388,-4.33082 -7.21472,-5.97455 l -2.85607,-2.9886 -2.25863,-4.63861 -2.25863,-4.6386 -0.3742,-10 -0.37421,-10 1.11521,-5.5 c 0.61337,-3.025 1.23076,-5.95765 1.372,-6.517 0.14123,-0.55935 1.28694,-2.68383 2.54602,-4.72107 l 2.28923,-3.70405 4.44587,-3.91342 4.44587,-3.91341 9.24046,-4.54914 9.24045,-4.54915 5.77154,-1.03641 5.77154,-1.03641 4.72846,0.91086 c 2.60065,0.50097 6.52846,1.55474 8.72846,2.34172 2.2,0.78697 5.75152,2.41687 7.89227,3.62199 2.14075,1.20513 5.88108,3.70971 8.31184,5.56573 2.43077,1.85603 5.94378,5.30073 7.80669,7.65489 1.86291,2.35416 3.18899,4.47842 2.94683,4.72057 -0.24215,0.24215 -0.043,0.93169 0.44267,1.53229 0.48562,0.60061 1.38996,3.56701 2.00965,6.59201 l 1.1267,5.5 0.15359,7.06733 c 0.0845,3.88702 -0.0897,7.48702 -0.38698,8 -0.29732,0.51297 -0.85797,2.73267 -1.2459,4.93267 l -0.70531,4 -1.44908,2.25 c -0.79699,1.2375 -1.21811,2.25 -0.93581,2.25 0.2823,0 -0.26983,0.97575 -1.22695,2.16834 -0.95711,1.19259 -3.09572,3.55509 -4.75245,5.25 -1.65673,1.69491 -5.5845,4.7673 -8.72838,6.82752 -3.14388,2.06023 -8.08838,4.66644 -10.98776,5.79159 l -5.27162,2.04573 -6.5,0.50263 z m 208,-0.24409 -4.5,0.52148 -6.11125,-1.34049 -6.11126,-1.3405 -4.38874,-2.21724 c -2.41381,-1.21948 -6.93434,-4.07298 -10.04561,-6.34111 l -5.65686,-4.12386 -2.9561,-5 c -1.62585,-2.75 -3.31314,-6.35 -3.74952,-8 -0.43638,-1.65 -0.94124,-3.675 -1.12191,-4.5 -0.18067,-0.825 -0.34483,-6 -0.36479,-11.5 -0.02,-5.5 0.2247,-11.35 0.54369,-13 0.31899,-1.65 1.22852,-4.30664 2.02117,-5.90364 0.79265,-1.597 1.44118,-3.60411 1.44118,-4.46025 l 0,-1.55662 6.34751,-6.03974 6.34751,-6.03975 7.90249,-3.98486 7.90249,-3.98486 9,-0.0151 9,-0.0151 8.767,4.21207 c 4.82185,2.31665 10.44685,5.46665 12.5,7 2.05315,1.53336 4.27777,3.30056 4.9436,3.9271 0.66583,0.62655 2.59002,3.47868 4.27599,6.33808 l 3.06538,5.19891 0.79604,5.82073 c 0.43782,3.2014 0.69094,6.53677 0.56249,7.41192 L 468.17697,235 l 0.88013,0 0.88013,0 -0.47179,1.25 c -0.25949,0.6875 -0.65498,3.725 -0.87888,6.75 -0.22389,3.025 -0.7175,7.3 -1.09692,9.5 -0.37942,2.2 -0.98661,4.225 -1.34932,4.5 -0.36271,0.275 -1.55516,2.23633 -2.64989,4.35852 l -1.99043,3.85851 -4.12181,3.64149 c -2.267,2.00281 -6.45683,4.89552 -9.31074,6.42824 -2.8539,1.53272 -7.52409,3.62977 -10.37818,4.66012 -2.8541,1.03036 -7.21427,2.10803 -9.68927,2.39484 z m 100.02765,-0.9091 -4.52765,0.44252 -4.03502,-0.84873 c -2.21926,-0.46679 -6.49426,-2.02592 -9.5,-3.46472 -3.00574,-1.4388 -7.61813,-4.19451 -10.24976,-6.1238 l -4.78479,-3.50781 -3.36628,-5.26234 -3.36628,-5.26235 -1.53655,-5.17411 -1.53654,-5.17411 0.34179,-10.77859 0.3418,-10.77858 1.61515,-5.18467 1.61516,-5.18467 3.80712,-4.81533 c 2.09392,-2.64843 5.39713,-6.02761 7.34046,-7.50928 1.94333,-1.48167 6.18392,-4.03735 9.42353,-5.67929 3.23962,-1.64193 8.05422,-3.52725 10.69911,-4.18959 l 4.80891,-1.20426 6.08295,0.55158 6.08296,0.55158 7.32385,3.61964 7.32385,3.61965 5.96012,4.71232 5.96011,4.71232 2.32418,4.9188 c 1.27829,2.70534 2.35906,5.18034 2.4017,5.5 0.0426,0.31966 0.4395,2.3812 0.8819,4.5812 0.4424,2.2 0.95861,4.86241 1.14711,5.91648 0.18851,1.05406 0.41962,4.4786 0.51359,7.61009 0.094,3.13149 -0.0825,6.10358 -0.39221,6.60465 -0.30968,0.50107 -0.86321,2.92349 -1.23007,5.38316 l -0.66701,4.47213 -1.16542,0.72027 c -0.64098,0.39615 -1.11021,1.07418 -1.04274,1.50675 0.0675,0.43256 -0.11457,1.40473 -0.40453,2.16038 -0.28997,0.75564 -2.14518,3.04094 -4.12269,5.07844 -1.9775,2.0375 -5.17046,4.84199 -7.09546,6.23221 -1.925,1.39022 -4.5125,2.84774 -5.75,3.23894 -1.2375,0.3912 -2.25,1.07847 -2.25,1.52726 0,0.44879 -0.7875,1.0555 -1.75,1.34825 -0.9625,0.29275 -4.21256,1.46801 -7.22235,2.61169 l -5.47235,2.07941 -4.52765,0.44251 z M 629.5,277.90974 c -1.65,-0.0227 -5.29177,-0.65942 -8.09282,-1.41483 l -5.09282,-1.37347 -6.40718,-3.69003 -6.40718,-3.69004 -4.75,-4.58309 -4.75,-4.5831 0,-1.28759 C 594,256.57942 593.6404,256 593.20089,256 l -0.79911,0 -1.42196,-3.75 c -0.78208,-2.0625 -1.49112,-4.425 -1.57565,-5.25 -0.0845,-0.825 -0.46204,-3.3 -0.83891,-5.5 -0.37688,-2.2 -0.67476,-6.8331 -0.66197,-10.29578 0.0128,-3.46267 0.33512,-7.95813 0.71628,-9.98989 0.38116,-2.03176 1.42321,-5.32504 2.31566,-7.31839 0.89245,-1.99335 3.18461,-5.69649 5.0937,-8.22919 l 3.47107,-4.60491 1.25,-0.0309 c 0.6875,-0.017 1.25,-0.41006 1.25,-0.87345 0,-0.46339 1.575,-1.69072 3.5,-2.7274 1.925,-1.03668 3.5,-2.16145 3.5,-2.49949 0,-0.33803 3.2625,-1.9232 7.25,-3.52259 l 7.25,-2.90799 8,0.0462 8,0.0462 6,2.2787 c 3.3,1.25329 8.35124,3.62156 11.22499,5.26284 l 5.22498,2.98413 3.27502,3.3611 c 1.80125,1.8486 3.95001,4.17345 4.77501,5.16634 0.825,0.99288 1.50689,2.0413 1.51531,2.32982 0.008,0.28852 0.34003,1.03457 0.7369,1.65789 0.39687,0.62332 0.98069,2.87332 1.29737,5 0.31668,2.12668 0.90195,5.21669 1.3006,6.86669 l 0.72482,3 -0.18743,7.5 c -0.10309,4.125 -0.46606,8.97489 -0.80661,10.77753 -0.34055,1.80264 -1.35779,5.1235 -2.26054,7.37968 l -1.64135,4.10214 -2.59091,2.62033 c -1.42499,1.44117 -4.4945,4.11407 -6.82113,5.93977 -2.32662,1.8257 -7.76186,5.06871 -12.0783,7.2067 l -7.84809,3.88724 -4.42032,1.01886 c -2.43117,0.56037 -5.77032,1.00024 -7.42032,0.97749 z m 107.5,-4.56241 -4.5,0.50714 -5.5,-1.21659 -5.5,-1.21659 -7,-3.71871 -7,-3.71872 -4.18122,-4.00167 -4.18122,-4.00168 -2.54777,-5.24025 C 695.18852,247.85811 693.69844,243.7 693.2785,241.5 l -0.76352,-4 -0.007,-13.06333 -0.007,-13.06332 3.34801,-6.43668 c 1.84141,-3.54017 4.31641,-7.49697 5.5,-8.7929 1.1836,-1.29593 4.17699,-3.74123 6.65199,-5.434 2.475,-1.69278 4.725,-3.33375 5,-3.6466 0.275,-0.31286 2.975,-2.16628 6,-4.11872 3.025,-1.95244 7.3,-4.39591 9.5,-5.42993 l 4,-1.88004 6.55045,-0.0672 6.55044,-0.0672 7.62602,3.76828 7.62602,3.76829 6.32354,7.23171 c 3.47794,3.97745 6.97249,8.35672 7.76567,9.73172 0.79317,1.375 2.88733,5.425 4.65368,9 l 3.21154,6.5 1.56492,6.5 1.56493,6.5 -0.12342,5.5 -0.12342,5.5 -2.39626,5.48991 -2.39625,5.48991 -2.19893,2.36994 c -1.20941,1.30346 -4.67393,3.96895 -7.69893,5.92331 -3.025,1.95435 -8.65,5.21676 -12.5,7.2498 -3.85,2.03304 -9.25,4.39863 -12,5.25687 -2.75,0.85825 -7.025,1.78866 -9.5,2.06759 z M 269.5399,192.93251 c -1.12194,-0.0371 -4.0649,-0.62875 -6.5399,-1.31473 -2.475,-0.68598 -7.04379,-2.46761 -10.15287,-3.95918 l -5.65287,-2.71194 -5.12032,-4.07686 -5.12032,-4.07686 -2.80897,-4.14647 -2.80897,-4.14647 -1.28131,-4.6911 -1.28131,-4.69111 -0.18561,-6.72769 c -0.10209,-3.70024 0.18641,-9.91424 0.64111,-13.8089 l 0.82673,-7.0812 1.53999,-3.5 c 0.84699,-1.925 2.07205,-4.61373 2.72235,-5.97495 0.6503,-1.36122 3.08914,-4.3161 5.41964,-6.56639 l 4.23728,-4.09144 4.76272,-2.37942 4.76273,-2.37943 4.44596,-0.67539 4.44597,-0.67539 6.06427,1.26881 6.06426,1.26881 8.66646,4.00392 c 4.76656,2.20215 10.73172,5.42485 13.25593,7.16155 2.52421,1.7367 5.52449,4.14352 6.6673,5.34848 1.1428,1.20496 3.1709,4.43405 4.50688,7.17576 1.33598,2.7417 2.68557,6.1167 2.9991,7.5 0.31353,1.38329 0.56233,6.18726 0.55288,10.67549 -0.009,4.48822 -0.27954,9.81129 -0.60021,11.82904 -0.32067,2.01775 -1.014,4.4739 -1.54073,5.45811 -0.52674,0.98421 -0.73271,2.01447 -0.45771,2.28947 0.27499,0.27499 -2.32834,3.41018 -5.78518,6.96707 l -6.28518,6.46709 -6.50446,3.61316 -6.50447,3.61316 -5.95563,1.55124 c -3.2756,0.85319 -6.87359,1.52088 -7.99554,1.48376 z m -104.25835,-0.96516 -4.78155,-0.0326 -5.25357,-1.8149 -5.25356,-1.81489 -8.74644,-5.32819 c -4.81053,-2.9305 -10.60778,-6.71161 -12.88277,-8.40246 l -4.13635,-3.07427 -2.79324,-4.38873 -2.79325,-4.38872 -0.68293,-4.50004 -0.68294,-4.50004 0.95617,-4.11124 c 0.52589,-2.26117 1.051,-4.66071 1.16691,-5.33229 0.11591,-0.67158 0.52377,-1.53408 0.90636,-1.91666 0.38259,-0.38259 0.69561,-1.26571 0.69561,-1.9625 0,-0.69679 1.4625,-3.65185 3.25,-6.5668 1.7875,-2.91495 4.15,-6.43235 5.25,-7.81644 1.1,-1.38409 4.475,-4.99295 7.5,-8.01968 l 5.5,-5.50315 7,-4.54787 c 3.85,-2.50133 9.25,-5.42416 12,-6.49517 l 5,-1.947304 8.5,-0.0017 8.5,-0.0017 5.8065,2.851194 5.8065,2.85119 4.31773,4.14881 4.31773,4.14881 2.39555,4.5 c 1.31755,2.475 3.0244,6.3 3.793,8.5 l 1.39746,4 0.25393,11.18835 0.25393,11.18835 -1.41927,5.435 c -0.7806,2.98925 -2.13465,6.95449 -3.00899,8.81165 -0.87435,1.85716 -2.1069,4.38915 -2.73902,5.62665 l -1.14931,2.25 -1.17954,0 c -0.64874,0 -1.32953,0.42296 -1.51287,0.93992 -0.18333,0.51696 -1.90833,2.07515 -3.83333,3.46266 -1.925,1.38751 -6.02045,3.86218 -9.10099,5.49926 -3.08055,1.63708 -8.35385,3.90388 -11.71846,5.03734 L 170.06309,192 165.28155,191.9674 z M 373,191.86055 c -1.375,-0.0498 -4.075,-0.42383 -6,-0.83118 -1.925,-0.40734 -5.814,-1.67991 -8.64222,-2.82792 -2.82822,-1.14801 -7.55322,-3.53678 -10.5,-5.30837 L 342.5,179.672 l -4.25,-4.50922 -4.25,-4.50923 0,-1.32678 0,-1.32677 -0.875,0 -0.875,0 -0.75164,-3.25 c -0.41341,-1.7875 -1.00683,-4.15 -1.31871,-5.25 -0.31189,-1.1 -0.55615,-6.275 -0.54281,-11.5 0.0133,-5.225 0.28805,-10.92541 0.61046,-12.66759 0.32241,-1.74217 1.45623,-5.11717 2.5196,-7.5 l 1.9334,-4.33241 5.84299,-5.76819 5.84299,-5.76819 7.90088,-4.63197 c 4.34549,-2.54759 9.54608,-5.21965 11.55687,-5.93792 l 3.65597,-1.30594 5.0685,-0.0439 5.0685,-0.0439 5.22521,1.55172 5.22522,1.55173 5.20629,3.04698 c 2.86345,1.67584 6.69955,4.17393 8.52465,5.55131 1.8251,1.37739 4.63893,4.32732 6.25295,6.55542 l 2.93459,4.05108 1.04344,3.87503 c 0.57389,2.13127 1.28473,6.67442 1.57964,10.09588 0.29491,3.42147 0.53863,6.67085 0.54161,7.22085 0.003,0.55 -0.25583,4.22436 -0.57512,8.16524 -0.31929,3.94088 -0.97998,8.21588 -1.4682,9.5 -0.48823,1.28412 -1.00422,2.78476 -1.14665,3.33476 -0.14243,0.55 -0.69036,2.2375 -1.21763,3.75 l -0.95865,2.75 -0.90218,0 -0.90217,0 0,1.15593 0,1.15593 -5.16717,4.75043 -5.16717,4.75043 -7.08283,3.53949 -7.08283,3.5395 -4.5,1.0297 c -2.475,0.56633 -5.625,0.98895 -7,0.93914 z m 105.08867,-1.26201 -7.58867,0.3873 -5.01169,-1.85102 c -2.75643,-1.01806 -6.80643,-2.76747 -9,-3.88757 -2.19357,-1.12011 -6.68831,-4.03409 -9.98831,-6.47553 l -6,-4.43896 -3.20683,-6.0308 -3.20682,-6.03079 -0.68413,-5.38559 C 433.02595,153.92351 432.77957,147.9 432.8547,143.5 c 0.0751,-4.4 0.33753,-9.51582 0.58312,-11.36848 0.24559,-1.85267 1.24386,-5.58579 2.21838,-8.29583 l 1.77185,-4.92735 5.03597,-5.28843 5.03598,-5.28844 6.5,-3.55359 6.5,-3.5536 4,-0.70854 c 2.2,-0.38969 6.31138,-0.682742 9.13641,-0.651221 l 5.13641,0.05731 5.1968,1.974631 c 2.85823,1.08604 8.41432,3.91613 12.34686,6.28908 l 7.15007,4.31446 4.6264,4.5 4.62639,4.5 1.73846,3.5 c 0.95615,1.925 2.17973,4.85 2.71906,6.5 l 0.98061,3 0.35155,7.34696 c 0.19336,4.04082 0.54492,7.54031 0.78124,7.77664 0.23633,0.23632 -0.19816,3.23019 -0.96553,6.65304 -0.76738,3.42285 -1.678,6.89836 -2.02361,7.72336 -0.34561,0.825 -0.7235,1.8375 -0.83975,2.25 -0.11626,0.4125 -0.26762,1.13429 -0.33637,1.60398 -0.0688,0.46968 -1.1375,2.00748 -2.375,3.41733 -1.2375,1.40984 -3.15,3.61985 -4.25,4.91113 -1.1,1.29127 -4.23482,3.81683 -6.96627,5.61236 -2.73145,1.79552 -7.41655,4.42375 -10.41133,5.84051 l -5.44507,2.57593 -7.58866,0.3873 z m 99.41133,-2.87001 -7,0.27099 -5.5,-2.25458 c -3.025,-1.24001 -7.75,-3.47755 -10.5,-4.97229 -2.75,-1.49475 -6.125,-3.75269 -7.5,-5.01763 -1.375,-1.26495 -3.66835,-3.86481 -5.09633,-5.77746 l -2.59634,-3.47756 -1.71675,-5.19797 -1.71675,-5.19797 0.20661,-8.59057 c 0.11363,-4.72482 0.62916,-10.91542 1.14561,-13.7569 l 0.93901,-5.16633 3.36707,-5.04513 3.36707,-5.04513 5.3004,-4.10954 c 2.91522,-2.26025 7.59012,-5.26845 10.38866,-6.68489 2.79855,-1.41644 7.84686,-3.50465 11.21846,-4.64046 L 577.93691,101 l 4.35004,0 4.35005,0 5.33491,1.5843 5.33491,1.5843 3.59659,2.37812 c 1.97812,1.30797 4.29033,2.95754 5.13824,3.66571 0.84792,0.70816 2.4822,2.86257 3.63175,4.78757 l 2.09009,3.5 1.67739,6.5 1.67738,6.5 0.55055,7 c 0.30281,3.85 0.57132,8.575 0.59669,10.5 0.0254,1.925 -0.22157,5.31109 -0.54876,7.52465 -0.32719,2.21356 -1.01839,5.13856 -1.53601,6.5 -0.51762,1.36144 -1.01999,2.92535 -1.11638,3.47535 -0.0964,0.55 -2.14892,3.025 -4.56119,5.5 -2.41227,2.475 -5.73294,5.52239 -7.37926,6.77199 -1.64632,1.24959 -6.0602,3.71504 -9.80861,5.47877 l -6.81529,3.20679 -7,0.27098 z m 102.1961,-4.13869 -6.1961,0.35088 -4.8437,-1.39065 c -2.66404,-0.76486 -8.51404,-3.17904 -13,-5.36484 l -8.1563,-3.97419 -4.02653,-4.0037 c -2.21459,-2.20204 -4.5678,-5.06202 -5.22936,-6.35552 -0.66156,-1.2935 -1.73127,-3.70182 -2.37713,-5.35182 -0.64586,-1.65 -1.31982,-3.675 -1.4977,-4.5 -0.17787,-0.825 -0.60703,-3.525 -0.95369,-6 -0.34667,-2.475 -0.81074,-4.8006 -1.03129,-5.16801 -0.22054,-0.36741 -0.40894,-5.31741 -0.41866,-11 -0.01,-5.68259 0.24149,-11.64484 0.55826,-13.24944 0.31677,-1.6046 1.67387,-5.23829 3.01579,-8.07486 l 2.43984,-5.15741 4.76024,-4.838763 4.76023,-4.838762 5.30862,-2.436521 5.30862,-2.43652 5.76326,-0.522595 5.76327,-0.522595 5.87584,1.708152 c 3.23171,0.939483 8.59936,3.07381 11.92811,4.742948 l 6.05228,3.034796 5.49672,4.62979 c 3.0232,2.54638 6.79399,5.75479 8.37955,7.12979 1.58556,1.375 4.5403,4.75 6.56609,7.5 2.02579,2.75 5.21489,7.7 7.08688,11 1.87199,3.3 3.25858,6 3.08132,6 -0.17725,0 0.20625,1.96282 0.85223,4.36181 l 1.17452,4.36182 -0.27379,4.63818 -0.27379,4.63819 -1.54487,2.924 c -0.84967,1.6082 -2.66986,4.24672 -4.04486,5.86338 l -2.5,2.93938 -9.15383,6.39416 -9.15382,6.39415 -6.65008,3.11194 -6.65007,3.11195 -6.1961,0.35088 z m -363.98312,-78.62723 -6.21298,-0.0374 -6.97169,-2.47991 -6.9717,-2.479921 -9.36627,-5.188735 -9.36627,-5.188735 -4.91204,-5.374547 c -2.70162,-2.956001 -4.9148,-5.900782 -4.91819,-6.543959 -0.003,-0.643177 -0.64991,-2.403449 -1.4367,-3.911714 l -1.43055,-2.742302 -0.59605,-7.643418 -0.59606,-7.643418 1.10243,-3.614281 C 264.64325,50.126426 265.67049,47.375 266.31967,46 266.96885,44.625 267.95,42.905246 268.5,42.178324 c 0.55,-0.726921 2.61821,-3.020128 4.59601,-5.096014 1.97781,-2.075887 5.70746,-5.227049 8.28811,-7.002583 2.58065,-1.775535 7.94402,-4.710196 11.9186,-6.52147 l 7.22651,-3.293225 8.66257,-2.132516 L 317.85437,16 l 9.32282,0.0056 9.32281,0.0056 3.53452,0.98193 c 1.94399,0.540062 5.63664,2.315054 8.2059,3.944429 l 4.67137,2.962498 2.38413,3.799995 c 1.31127,2.089996 2.69996,5.078407 3.08597,6.640913 0.38602,1.562505 1.00683,5.612505 1.37958,9 C 360.13422,46.728413 360.42748,54.675 360.41316,61 l -0.026,11.5 -2.39883,4.952414 -2.39883,4.952414 -4.11399,4.047586 c -2.2627,2.226172 -5.14148,4.8702 -6.39729,5.875617 -1.25581,1.005416 -4.68257,3.362825 -7.61501,5.238687 -2.93245,1.875861 -7.62795,4.315742 -10.43446,5.421972 L 321.92596,105 315.71298,104.9626 z M 531.5,101.34512 l -5,0.58277 -5.45569,-1.49609 -5.45569,-1.49609 -7.04431,-4.052971 c -3.87437,-2.229133 -8.87083,-5.45065 -11.10324,-7.158926 -2.23241,-1.708276 -5.47947,-4.956399 -7.21569,-7.218052 l -3.15676,-4.112096 -1.36681,-5.946832 -1.36682,-5.946833 0.29107,-8.428118 c 0.16009,-4.635464 0.80047,-11.835464 1.42308,-16 L 487.18116,32.5 l 1.58287,-3.5 1.58287,-3.5 3.91654,-3.641415 3.91654,-3.641416 5.66001,-1.838356 5.66001,-1.838356 9.5,0.0069 9.5,0.0069 5.5,1.312066 c 3.025,0.721637 7.525,2.033296 10,2.914798 2.475,0.881503 6.83112,2.843903 9.68026,4.36089 2.84915,1.516988 6.1874,3.568125 7.41834,4.558083 1.23095,0.989958 3.7595,3.269597 5.61902,5.065865 l 3.38093,3.26594 2.50621,4.989766 2.50622,4.989765 -0.61451,0.994294 -0.6145,0.994294 0.82935,0 0.82936,0 0.25434,6.01043 0.25433,6.01043 -1.60717,6.202263 -1.60716,6.202262 -2.48147,4.234304 -2.48147,4.234304 -4.0477,3.928714 -4.04771,3.928714 -7.63833,4.474715 C 547.93725,95.68723 542.7,98.389689 540.5,99.2316 c -2.2,0.84191 -6.25,1.793 -9,2.11352 z m -106,-4.701076 -9,0.413906 -5.16218,-1.923526 c -2.8392,-1.057939 -8.0142,-3.431286 -11.5,-5.274103 L 393.5,86.509743 388.68817,81.740661 383.87634,76.971579 381.396,71.553807 378.91566,66.136035 377.45821,58.318017 376.00076,50.5 375.65297,41 l -0.3478,-9.5 1.29639,-3.25 c 0.71301,-1.7875 1.06639,-3.25 0.78528,-3.25 -0.28111,0 0.97935,-2.088629 2.80102,-4.641397 L 383.5,15.717206 388.61916,12.303897 393.73832,8.8905873 401.11916,6.2800428 408.5,3.6694983 420,3.2443412 l 11.5,-0.4251571 7.32825,1.5529246 7.32825,1.5529246 5.48812,2.5125468 5.48813,2.5125469 4.93362,5.118738 4.93363,5.118738 0,1.847181 c 0,1.01595 0.38106,2.082692 0.84681,2.370537 l 0.8468,0.523355 0.24594,3.285662 c 0.13526,1.807114 0.25626,5.535662 0.26889,8.285662 0.0126,2.75 -0.27885,8.159728 -0.64771,12.021619 -0.36886,3.86189 -0.79866,7.68689 -0.95511,8.5 -0.15645,0.813109 -0.63863,3.278381 -1.07151,5.478381 -0.43288,2.2 -1.91716,6.424519 -3.2984,9.387821 l -2.51135,5.387821 -3.82816,3.828158 c -2.10549,2.105486 -5.75597,5.065101 -8.11218,6.576921 -2.35621,1.51182 -6.53402,3.828911 -9.28402,5.149091 l -5,2.400327 -9,0.413905 z"
     id="path2995"
     inkscape:connector-curvature="0" />
</svg>
